<?xml version="1.0" encoding="utf-8"?>
<!-- Generator: Adobe Illustrator 23.0.3, SVG Export Plug-In . SVG Version: 6.00 Build 0)  -->
<svg version="1.1" id="Layer_1" xmlns="http://www.w3.org/2000/svg" xmlns:xlink="http://www.w3.org/1999/xlink" x="0px" y="0px"
	 viewBox="0 0 158.17 108.79" style="enable-background:new 0 0 158.17 108.79;" xml:space="preserve">
<style type="text/css">
	.st0{fill:none;}
	.st1{fill:#FFFFFF;}
	.st2{font-family:'Helvetica';}
	.st3{font-size:7.2664px;}
	.st4{fill:#FF8800;}
	.st5{fill:#007CC0;}
	.st6{fill:#6E992E;}
</style>
<rect x="17.86" y="74.68" class="st0" width="84.25" height="33.62"/>
<text transform="matrix(1 0 0 1 26.8789 79.9089)"><tspan x="0" y="0" class="st1 st2 st3">GESTIÓN HUMANA </tspan><tspan x="15.14" y="8.72" class="st1 st2 st3">A UN CLIC</tspan></text>
<circle class="st4" cx="19.41" cy="9.43" r="9.18"/>
<circle class="st4" cx="111.69" cy="76.17" r="9.18"/>
<path class="st5" d="M9.65,18c0,0,0.59,0.77,4.33,3.25c0,0-15.09,23.5-3.88,48.32c0,0,10.78,28.51,41.35,32.91
	c0,0,25.61,5.9,50.48-17.74l3.83,2.69c0,0-20.5,26.54-56.32,20.13c0,0-31.99-3.38-44.95-36.56C4.5,70.99-7.63,45.32,9.65,18z"/>
<g>
	<path class="st1" d="M14.21,43.7c0.1-2.49,0.28-4.53,0.54-6.12c0.26-1.59,0.78-3.01,1.55-4.25c0.77-1.25,1.95-2.21,3.56-2.9
		c1.6-0.69,3.73-1.03,6.38-1.03c3.21,0.03,5.74,0.54,7.61,1.53c1.86,0.99,3.17,2.8,3.93,5.44c0.2,0.69,0.31,1.73,0.34,3.14
		c0,0.34,0,0.6,0,0.77h-6.87c-0.03-1-0.1-1.83-0.2-2.47c-0.1-0.64-0.31-1.23-0.64-1.76c-0.33-0.53-0.83-0.95-1.5-1.27
		c-0.67-0.31-1.56-0.49-2.67-0.52c-1.11,0-2,0.22-2.67,0.67c-0.67,0.44-1.17,1.05-1.5,1.8c-0.33,0.76-0.54,1.59-0.64,2.49
		c-0.1,0.9-0.15,1.95-0.15,3.16v8.94c0,0.89,0.05,1.7,0.15,2.45c0.1,0.75,0.31,1.47,0.64,2.17c0.33,0.7,0.83,1.27,1.5,1.72
		c0.67,0.44,1.56,0.67,2.67,0.67c1.8,0,3.09-0.73,3.88-2.19c0.79-1.46,1.18-3.57,1.18-6.32h-4.76v-4.73h11.43v17.32h-5.15v-3.7h-0.1
		c-0.62,1.55-1.5,2.66-2.63,3.33c-1.13,0.67-2.41,1.05-3.85,1.14c-2.72,0-4.89-0.36-6.53-1.07c-1.64-0.72-2.85-1.72-3.63-3.01
		c-0.79-1.29-1.29-2.77-1.52-4.45c-0.23-1.68-0.34-3.79-0.34-6.34V43.7z"/>
	<path class="st1" d="M42.72,62.39V30.17h6.87v12.76h9.62V30.17h6.87v32.23H59.2V47.66h-9.62v14.74H42.72z"/>
	<path class="st6" d="M69.85,46.5c0-5.99,3.11-8.98,9.32-8.98c2.16,0,3.9,0.24,5.23,0.71c1.32,0.47,2.31,1.16,2.97,2.06
		c0.65,0.9,1.09,1.98,1.3,3.22c0.21,1.25,0.32,2.8,0.32,4.66v3.27H76.23v3.52c0.03,1.46,0.33,2.46,0.88,2.99
		c0.56,0.53,1.37,0.79,2.45,0.79s1.84-0.35,2.28-1.05c0.44-0.7,0.66-1.87,0.66-3.5h6.38c0,2.92-0.71,5.13-2.13,6.62
		c-1.42,1.49-3.66,2.23-6.7,2.23c-3.6,0-6.2-0.79-7.8-2.38c-1.6-1.59-2.4-4.19-2.4-7.8V46.5z M82.61,47.14v-2.11
		c-0.03-1.23-0.28-2.08-0.74-2.54c-0.46-0.46-1.32-0.69-2.6-0.69c-1.31,0-2.14,0.34-2.5,1.01c-0.36,0.67-0.54,1.78-0.54,3.33v0.99
		H82.61z"/>
	<path class="st6" d="M98.53,54.4c-0.07,0.46-0.1,0.89-0.1,1.29c0,1.32,0.26,2.16,0.79,2.51c0.52,0.36,1.28,0.54,2.26,0.54
		c0.79,0,1.44-0.2,1.96-0.6c0.52-0.4,0.79-0.9,0.79-1.5c0-0.2-0.03-0.4-0.1-0.6c-0.03-0.52-0.27-0.96-0.71-1.33
		c-0.44-0.37-1.06-0.77-1.84-1.2c-0.16-0.09-0.36-0.2-0.59-0.34l-3.48-2.11c-1.7-1.03-3-2.15-3.9-3.35c-0.9-1.2-1.35-2.64-1.35-4.3
		c0-1.89,0.83-3.34,2.48-4.36c1.65-1.02,4-1.53,7.04-1.53c5.92,0,8.88,2.68,8.88,8.04h-6.38c0-1.4-0.23-2.38-0.69-2.92
		c-0.46-0.54-1.21-0.82-2.26-0.82c-0.82,0-1.47,0.17-1.96,0.49c-0.49,0.33-0.74,0.82-0.74,1.48c0,0.6,0.19,1.09,0.56,1.46
		c0.38,0.37,0.94,0.79,1.69,1.25l0.15,0.09l5.2,3.09c0.42,0.2,0.87,0.49,1.35,0.86c0.47,0.37,0.93,0.78,1.37,1.22
		c0.44,0.44,0.82,0.9,1.13,1.37c0.31,0.47,0.48,0.91,0.52,1.31c0.07,0.57,0.1,1.12,0.1,1.63c0,0.97-0.15,1.87-0.44,2.69
		c-0.29,0.82-0.79,1.55-1.5,2.19c-0.7,0.64-1.69,1.15-2.94,1.53c-1.26,0.37-2.82,0.56-4.69,0.56c-0.95,0-1.93-0.11-2.94-0.32
		c-1.01-0.21-1.98-0.59-2.9-1.12c-0.92-0.53-1.68-1.3-2.28-2.3c-0.61-1-0.91-2.25-0.91-3.74c0-0.11,0-0.3,0-0.56
		c0.03-0.26,0.05-0.46,0.05-0.6H98.53z"/>
	<path class="st6" d="M125.58,62.48c-1.31,0.14-2.39,0.21-3.24,0.21c-1.73,0-3.14-0.29-4.22-0.88c-1.08-0.59-1.62-1.64-1.62-3.16
		V42.24h-2.6v-4.08h2.55V31.5h6.43v6.66h2.7v4.08h-2.7v15.04c0.07,0.32,0.26,0.54,0.59,0.67c0.33,0.13,0.72,0.19,1.18,0.19
		c0.16,0,0.34,0,0.54,0c0.2-0.03,0.33-0.04,0.39-0.04V62.48z"/>
	<path class="st6" d="M129.96,62.39V38.16h6.38v24.23H129.96z"/>
	<path class="st6" d="M151.43,46.58v-2.71c-0.1-1.38-0.83-2.06-2.21-2.06c-1.01,0-1.67,0.41-1.96,1.22
		c-0.29,0.82-0.44,2.21-0.44,4.19v5.71c0,2.32,0.17,3.84,0.52,4.55c0.34,0.72,0.97,1.13,1.89,1.25c0.85-0.03,1.4-0.29,1.64-0.79
		c0.25-0.5,0.42-1.32,0.52-2.47l0.05-0.3v-2.23h6.38v2.23c0,2.61-0.69,4.57-2.06,5.89c-1.37,1.32-3.6,1.98-6.67,1.98
		c-2.85,0-5-0.71-6.45-2.13c-1.46-1.42-2.18-3.73-2.18-6.94v-7.86c0-1.63,0.21-3.01,0.64-4.15c0.42-1.13,1.03-2.02,1.82-2.66
		c0.79-0.64,1.69-1.1,2.72-1.38c1.03-0.27,2.18-0.41,3.46-0.41c1.54,0,2.87,0.19,4,0.58c1.13,0.39,2.04,0.91,2.72,1.57
		c0.69,0.66,1.19,1.41,1.52,2.26c0.33,0.85,0.49,1.76,0.49,2.73v1.93H151.43z"/>
</g>
</svg>
