<svg id="Capa_1" data-name="Capa 1" xmlns="http://www.w3.org/2000/svg" viewBox="0 0 559.93 483.53"><defs><style>.cls-1{fill:#d8eefa;}.cls-1,.cls-2,.cls-3{fill-rule:evenodd;}.cls-2{fill:#007dc4;}.cls-3{fill:#004f9a;}.cls-4{fill:#93ce1c;}.cls-5{fill:#fff;}</style></defs><title>LOGO ALCANOS VECTOR 2</title><path class="cls-1" d="M425.17,26.11C378,49.14,333.89,78.33,307.54,144c-14.23,35.49-20.37,70.87-9.78,108.54,8.1,28.86,28,57.05,74.64,83.22,55.28,35.57,45.1,73,7,127.27C448.06,438.8,502,364.68,511.88,294.17c6.36-45.15-7.88-90.14-65.09-112-19.62-7.5-34.55-14.83-47.61-32.14-30.89-41-2.29-78,26-123.91"/><path class="cls-2" d="M402.48,26.11C355.32,49.14,311.2,78.33,284.84,144c-14.25,35.49-20.36,70.87-9.77,108.54,8.1,28.86,28,57.05,74.67,83.22,55.24,35.57,67.74,73,29.7,127.27,77.32-37.38,135-130.06,115.39-217.38-6.57-29.4-24.66-54-61-65.77-20-6.48-31.17-10.87-47.84-24.74-40.52-33.64-14.86-81.49,16.45-129"/><path class="cls-3" d="M385.48,23.47c-47.17,23-91.3,52.23-117.65,117.89-14.24,35.47-20.37,70.86-9.79,108.51,8.13,28.86,28,57.06,74.67,83.22C388,368.66,417.5,408.78,379.44,463c43.75-25.33,71.26-61.22,88.3-98.79,31-68.44,35-164.36-49.55-187.21-20.3-5.48-38.85-9.57-56.17-22.61-44-33.14-9.56-82.16,23.46-130.92"/><path class="cls-4" d="M401,252.2h19.34l-.95,4.68c-.56,2.53-.56,4.47,0,5.79a3.08,3.08,0,0,0,3.14,2,5.28,5.28,0,0,0,3.82-1.74,9,9,0,0,0,2.25-4.62c.58-2.68-1.11-6-5-9.87a3.32,3.32,0,0,1-.59-.62c-.76-.74-1.81-1.75-3.2-3.05Q406,231.33,408.52,219.15a27.54,27.54,0,0,1,10.19-16.74c5.37-4.15,11.78-6.22,19.37-6.22q10.91,0,15.75,5.73c3.21,3.84,4.1,9.18,2.66,16.13l-.77,3.59h-19.2l.73-3.48c.51-2.48.55-4.32.08-5.46s-1.51-1.73-3.15-1.73a5.15,5.15,0,0,0-3.55,1.51,7,7,0,0,0-2.12,3.78c-.62,2.89,1.91,6.93,7.53,12.21,1.76,1.62,3.11,2.94,4,3.86,4.62,4.5,7.61,8.53,8.9,12.07a22.07,22.07,0,0,1,.52,12.35,27.63,27.63,0,0,1-10.43,16.9c-5.45,4.14-12.16,6.26-20,6.26-7.42,0-12.8-2-16.21-5.94s-4.34-9.4-2.92-16.36ZM346.3,221.4q2.64-12.6,10.46-18.86c5.21-4.15,12.21-6.24,21.06-6.24s15,2.09,18.54,6.24S400.74,213,399,221.4L392,254.76q-2.61,12.63-10.5,18.89c-5.24,4.14-12.28,6.26-21.12,6.26s-15-2.09-18.48-6.23-4.33-10.5-2.56-18.92Zm23.52,36.38,8.2-39.37c.5-2.38.48-4.08-.08-5.12s-1.66-1.52-3.35-1.52a5.25,5.25,0,0,0-4,1.57,10.81,10.81,0,0,0-2.19,5.07l-8.2,39.37c-.49,2.41-.49,4.1,0,5.16s1.63,1.5,3.37,1.5a5.24,5.24,0,0,0,4-1.5,11.08,11.08,0,0,0,2.19-5.16M271,278.39l16.76-80.62h20.16l-2,9.58a28.59,28.59,0,0,1,8.84-8.18,20.11,20.11,0,0,1,10.16-2.87c5.16,0,8.63,1.65,10.51,4.9s2.1,8.18.73,14.78l-13,62.41H302l11.65-55.94a7.74,7.74,0,0,0-.13-4.72,3,3,0,0,0-3-1.61,5.46,5.46,0,0,0-4.44,2.19c-1.15,1.45-2,3.93-2.79,7.4l-11,52.68Zm-31.25-5.8a37,37,0,0,1-8.75,5.54,21.4,21.4,0,0,1-8.47,1.78c-5.07,0-8.74-1.78-11-5.26s-2.75-8.22-1.49-14.15l1.3-6.36a28.75,28.75,0,0,1,6.41-13.31,36.12,36.12,0,0,1,13.2-9l4.39-1.85c9-3.67,13.88-7.46,14.69-11.32l.6-2.91a4.39,4.39,0,0,0-.64-3.62,3.61,3.61,0,0,0-3.19-1.53,5.5,5.5,0,0,0-4.2,2.1,12,12,0,0,0-2.59,5.71l-1.05,5H219.18l1-5q2.21-10.5,10.08-16.31t20.06-5.82q13.39,0,18.26,5.6t2.25,18.28l-12.11,58.21H238.94ZM246,238.18c-4.54,2.24-7.64,4.23-9.26,5.91a14.5,14.5,0,0,0-3.32,7l-1.71,8.2c-.64,3-.73,5-.39,6s1.29,1.45,2.72,1.45a6.23,6.23,0,0,0,5-2.6,17.37,17.37,0,0,0,3.13-7.44Zm-58.1-19.77c.51-2.38.49-4.08-.06-5.12s-1.67-1.52-3.33-1.52a5.35,5.35,0,0,0-4,1.57,10.43,10.43,0,0,0-2.17,5.07l-8.22,39.37c-.47,2.41-.47,4.1,0,5.16s1.65,1.5,3.38,1.5a5.29,5.29,0,0,0,4-1.5,11.08,11.08,0,0,0,2.18-5.16l2.82-13.59h21.61L202,254.76q-2.64,12.63-10.52,18.89c-5.25,4.14-12.29,6.26-21.11,6.26s-15-2.09-18.47-6.23-4.34-10.5-2.59-18.92l7-33.36c1.74-8.4,5.22-14.71,10.43-18.86s12.21-6.24,21.07-6.24,15,2.09,18.51,6.24,4.39,10.46,2.64,18.86l-1.43,6.94H185.83Zm-76.41,60,20.95-100.68h21.23L132.75,278.39Zm-39-36.34H83.42l2.9-30.75c.17-2.07.42-4.25.66-6.63s.7-5.9,1.29-10.65c-.83,2.72-1.69,5.53-2.62,8.45s-1.9,5.87-2.92,9ZM37,278.39,76.56,177.71h30.56l-2.59,100.68H80.28l1.5-18.11H66.05l-6,18.11Z"/><path class="cls-5" d="M302,278.39h21.22l13-62.41c1.37-6.6,1.13-11.54-.73-14.78s-5.35-4.9-10.51-4.9a20.11,20.11,0,0,0-10.16,2.87,28.59,28.59,0,0,0-8.84,8.18l2-9.58H287.78L271,278.39h21.25l11-52.68c.74-3.47,1.64-6,2.79-7.4a5.46,5.46,0,0,1,4.45-2.19,3,3,0,0,1,3,1.61,7.74,7.74,0,0,1,.13,4.72Z"/><path class="cls-5" d="M438.08,196.17c-7.59,0-14,2.09-19.37,6.24a27.54,27.54,0,0,0-10.19,16.74Q406,231.33,419.8,244.79c1.39,1.3,2.44,2.31,3.2,3.05a3.32,3.32,0,0,0,.59.62c3.92,3.89,5.6,7.19,5,9.87a9,9,0,0,1-2.25,4.62,5.27,5.27,0,0,1-3.82,1.73,3.07,3.07,0,0,1-3.14-2c-.56-1.32-.56-3.26,0-5.79l.95-4.68H401l-1.13,5.41c-1.42,7-.47,12.44,2.92,16.36s8.79,5.94,16.21,5.94c7.88,0,14.59-2.12,20-6.26a27.68,27.68,0,0,0,10.43-16.9A22.07,22.07,0,0,0,449,244.4c-1.29-3.54-4.28-7.57-8.9-12.07-.94-.92-2.27-2.24-4-3.86-5.62-5.28-8.15-9.32-7.53-12.21a7,7,0,0,1,2.12-3.78,5.06,5.06,0,0,1,3.55-1.51c1.64,0,2.66.58,3.15,1.73s.43,3-.08,5.46l-.73,3.48h19.2l.77-3.59c1.44-7,.55-12.29-2.66-16.13s-8.48-5.75-15.75-5.75"/><path class="cls-5" d="M381.54,273.65q7.89-6.25,10.5-18.89L399,221.4q2.63-12.6-2.63-18.86c-3.54-4.15-9.7-6.24-18.54-6.24s-15.85,2.09-21.06,6.24S348.06,213,346.3,221.4l-6.92,33.36c-1.77,8.42-.91,14.75,2.56,18.92s9.64,6.23,18.48,6.23,15.88-2.12,21.12-6.26m-21.32-15.87,8.2-39.37a10.77,10.77,0,0,1,2.19-5.07,5.25,5.25,0,0,1,4-1.57c1.69,0,2.79.51,3.35,1.52s.58,2.74.08,5.12l-8.2,39.37a10.9,10.9,0,0,1-2.19,5.14,5.18,5.18,0,0,1-4,1.52c-1.74,0-2.84-.5-3.37-1.52s-.54-2.73,0-5.14"/><path class="cls-4" d="M56.32,347.33H47.91l.6-3.13h-.09a7.61,7.61,0,0,1-6.6,3.75c-4,0-5.59-3.45-4.46-9.33l2.93-15.27c1-5,3.53-7.91,7.64-7.91,3,0,4.53,1.07,5.35,3.46h.09l2-10.65h8.42Zm-4.27-21.57c.37-1.91.38-4-1.39-4a2.23,2.23,0,0,0-2,1.91l-3,15.84c-.31,1.63.44,2.08,1.26,2.08,2.16,0,2.73-3,3.14-5.11Z"/><path class="cls-4" d="M64.56,324.35c.7-3.68,3.61-8.91,12-8.91s9.31,5.23,8.61,8.91l-1.65,8.59H71.32L70,339.65c-.21,1.07-.49,2.56,1.42,2.56s2.18-1.49,2.39-2.56l.75-3.92H83l-.63,3.34c-.71,3.65-3.62,8.88-12,8.88s-9.31-5.23-8.61-8.88Zm7.86,2.81h3.83l.64-3.41c.22-1.07.5-2.54-1.41-2.54s-2.19,1.47-2.4,2.54Z"/><path class="cls-4" d="M102.39,318.9c1.47-7.62,7.06-11.29,13.76-11.29s10.89,3.67,9.43,11.29l-.7,3.63h-9l.84-4.39c.25-1.33.68-3.58-1.91-3.58s-3,2.25-3.28,3.58l-3.71,19.32c-.2,1-.69,3.56,1.91,3.56s3.08-2.54,3.27-3.56l1.11-5.73h9l-1,4.94c-1.34,6.94-6.63,11.28-13.78,11.28S97.65,343.61,99,336.67Z"/><path class="cls-4" d="M128.45,324.35c.71-3.68,3.62-8.91,12-8.91s9.3,5.23,8.61,8.91l-2.83,14.72c-.71,3.65-3.62,8.88-12,8.88s-9.31-5.23-8.61-8.88Zm5.47,15.3c-.21,1.07-.48,2.56,1.42,2.56s2.19-1.49,2.4-2.56l3.06-15.9c.2-1.07.48-2.54-1.42-2.54s-2.19,1.47-2.41,2.54Z"/><polygon class="cls-4" points="156.69 308.25 165.1 308.25 157.6 347.33 149.18 347.33 156.69 308.25"/><path class="cls-4" d="M166.5,324.35c.71-3.68,3.63-8.91,12.05-8.91s9.3,5.23,8.6,8.91l-2.82,14.72c-.71,3.65-3.62,8.88-12,8.88s-9.32-5.23-8.61-8.88Zm5.49,15.3c-.21,1.07-.49,2.56,1.42,2.56s2.19-1.49,2.39-2.56l3-15.9c.22-1.07.5-2.54-1.41-2.54s-2.19,1.47-2.41,2.54Z"/><path class="cls-4" d="M193,316.07h8.13l-.76,3.86h.11c2.1-2.83,4-4.49,7.41-4.49,2.7,0,4.9,1.22,5,4.49,2.16-2.83,3.71-4.49,7.57-4.49,4.06,0,5.62,2.83,4.88,6.71l-4.84,25.18H212l4-21c.22-1.12.65-3.37-1.4-3.37s-2.57,2.64-2.71,3.37l-4,21h-8.42l4-21c.22-1.12.65-3.37-1.4-3.37s-2.57,2.64-2.7,3.37l-4,21H187Z"/><path class="cls-4" d="M232.12,308.25h8.42l-2,10.65h.09a7.45,7.45,0,0,1,6.68-3.46c4.11,0,5.55,2.93,4.59,7.91l-2.93,15.27c-1.13,5.88-4.09,9.33-8,9.33-2.75,0-4.59-1.35-5.16-3.75h-.09l-.61,3.13h-8.4Zm3,28.26c-.42,2.15-1,5.11,1.18,5.11.82,0,1.74-.45,2.05-2.08l3-15.84c.25-1.27-.51-1.91-1.29-1.91-1.76,0-2.55,2.06-2.91,4Z"/><path class="cls-4" d="M257.28,308.25h8.41l-1.1,5.76h-8.43Zm-1.51,7.82h8.41l-6,31.26h-8.41Z"/><path class="cls-4" d="M282.4,347.33h-7.74l.46-2.4H275a9,9,0,0,1-6.55,3c-6.16,0-6-4.49-5-9.52,1.14-5.87,4.79-7.83,8.12-9.2s6.57-2.07,7.22-5.43c.32-1.65.11-2.59-1.47-2.59a2.38,2.38,0,0,0-2.56,2.14l-.48,2.54h-7.84l.55-2.83c.88-4.58,5.58-7.62,11.34-7.62,7.59,0,9.59,3,8.29,9.78Zm-5.12-15.7-2.67,1.71a4.09,4.09,0,0,0-2,2.78l-.8,4.16c-.34,1.76.21,2.51,1.38,2.51,1.33,0,2.19-1.23,2.49-2.76Z"/></svg>