<?xml version="1.0" encoding="utf-8"?>
<!-- Generator: Adobe Illustrator 23.0.3, SVG Export Plug-In . SVG Version: 6.00 Build 0)  -->
<svg version="1.1" id="Layer_1" xmlns="http://www.w3.org/2000/svg" xmlns:xlink="http://www.w3.org/1999/xlink" x="0px" y="0px"
	 viewBox="0 0 120 50" style="enable-background:new 0 0 120 50;" xml:space="preserve">
<style type="text/css">
	.st0{opacity:0.25;fill:url(#SVGID_1_);}
	.st1{fill:url(#SVGID_2_);}
	.st2{fill:#E87623;}
	.st3{fill:url(#SVGID_3_);}
	.st4{fill:#0287BE;}
	.st5{fill:#35B2E7;}
	.st6{fill:#60C5EC;}
	.st7{fill:#F39455;}
	.st8{fill:#F1843B;}
	.st9{fill:#F28B46;}
	.st10{fill:#08B1D9;}
	.st11{font-family:'AntipastoPro-DemiBold';}
	.st12{font-size:11.2599px;}
	.st13{opacity:0.5;fill:#6E6D6D;}
</style>
<g>
	
		<radialGradient id="SVGID_1_" cx="21.928" cy="51.3164" r="20.2345" gradientTransform="matrix(1 0 0 0.0683 0 42.6176)" gradientUnits="userSpaceOnUse">
		<stop  offset="0.1098" style="stop-color:#676767"/>
		<stop  offset="0.2457" style="stop-color:#757474;stop-opacity:0.8472"/>
		<stop  offset="0.5068" style="stop-color:#9B9899;stop-opacity:0.5538"/>
		<stop  offset="0.8635" style="stop-color:#E0DEDF;stop-opacity:0.1527"/>
		<stop  offset="0.9994" style="stop-color:#FFFFFF;stop-opacity:0"/>
	</radialGradient>
	<ellipse class="st0" cx="21.93" cy="46.12" rx="21.36" ry="1.73"/>
	<linearGradient id="SVGID_2_" gradientUnits="userSpaceOnUse" x1="2.2482" y1="21.6565" x2="38.1671" y2="21.6565">
		<stop  offset="0" style="stop-color:#DA78AE"/>
		<stop  offset="1" style="stop-color:#9C77B3"/>
	</linearGradient>
	<path class="st1" d="M22.94,37.86c-3.63,1.06-7.26,0.01-10.71-2.22c-6.06-3.92-7.38-11.51-4.01-17.75
		c3.56-6.58,11.49-8.42,17.89-4.57c1.33,0.8,2.48,1.8,3.42,2.93c1.38,1.66,3.55,2.43,5.65,1.9l0.18-0.04
		c2.35-0.58,3.51-3.22,2.37-5.35c-1.64-3.07-4.15-5.73-7.44-7.56C21.55,0.3,10.38,3.19,5.1,11.69c-5.57,8.95-2.71,20.7,6.29,26.12
		c3.79,2.28,8.07,3.07,12.14,2.54c0.72-0.09,1.21-0.78,1.07-1.49l0,0C24.45,38.09,23.68,37.64,22.94,37.86z"/>
	<path class="st2" d="M22.94,37.86c-3.63,1.06-7.26,0.01-10.71-2.22c-6.06-3.92-7.38-11.51-4.01-17.75
		c3.56-6.58,11.49-8.42,17.89-4.57c1.33,0.8,2.48,1.8,3.42,2.93c1.38,1.66,3.55,2.43,5.65,1.9l0.18-0.04
		c2.35-0.58,3.51-3.22,2.37-5.35c-1.64-3.07-4.15-5.73-7.44-7.56C21.55,0.3,10.38,3.19,5.1,11.69c-5.57,8.95-2.71,20.7,6.29,26.12
		c3.79,2.28,8.07,3.07,12.14,2.54c0.72-0.09,1.21-0.78,1.07-1.49l0,0C24.45,38.09,23.68,37.64,22.94,37.86z"/>
	<linearGradient id="SVGID_3_" gradientUnits="userSpaceOnUse" x1="21.9176" y1="9.2844" x2="16.9615" y2="32.4127">
		<stop  offset="0" style="stop-color:#744C99"/>
		<stop  offset="1" style="stop-color:#6578B9"/>
	</linearGradient>
	<path class="st3" d="M7.55,17.97c3.9-6.39,12.16-8.51,18.56-4.66c1.33,0.8,2.48,1.8,3.42,2.93c1.38,1.66,3.55,2.43,5.65,1.9
		l0.18-0.04c2.35-0.58,3.51-3.22,2.37-5.35c-1.64-3.07-4.15-5.73-7.44-7.56C21.55,0.3,10.38,3.19,5.1,11.69
		c-5.57,8.95-2.71,20.7,6.29,26.12c2.52,1.51,5.24,2.36,7.98,2.62C3.51,37.56,4.53,22.92,7.55,17.97z"/>
	<path class="st4" d="M7.55,17.97c3.9-6.39,12.16-8.51,18.56-4.66c1.33,0.8,2.48,1.8,3.42,2.93c1.38,1.66,3.55,2.43,5.65,1.9
		l0.18-0.04c2.35-0.58,3.51-3.22,2.37-5.35c-1.64-3.07-4.15-5.73-7.44-7.56C21.55,0.3,10.38,3.19,5.1,11.69
		c-5.57,8.95-2.71,20.7,6.29,26.12c2.52,1.51,5.24,2.36,7.98,2.62C3.51,37.56,4.53,22.92,7.55,17.97z"/>
	<path class="st5" d="M16.38,8.8c7.85-0.25,11.56,4.26,13.49,7.22c1.18,1.81,3.21,2.65,5.31,2.13l0.18-0.04
		c2.35-0.58,3.51-3.22,2.37-5.35c-1.64-3.07-4.15-5.73-7.44-7.56C21.55,0.3,10.38,3.19,5.09,11.69C3.03,15,2.13,18.7,2.26,22.31
		C2.11,14.52,8.53,9.05,16.38,8.8z"/>
	<path class="st6" d="M35.36,17.4l-0.18,0.04c-2.09,0.52-4.13-0.32-5.31-2.13c-1.93-2.96-5.64-7.47-13.49-7.22
		C8.53,8.35,2.11,13.82,2.26,21.62c0-0.11,0-0.22-0.01-0.34c-0.01,0.35-0.01,0.69,0.01,1.04C2.11,14.52,8.53,9.05,16.38,8.8
		c7.85-0.25,11.56,4.26,13.49,7.22c1.18,1.81,3.21,2.65,5.31,2.13l0.18-0.04c1.85-0.46,2.96-2.19,2.79-3.95
		C38.01,15.65,36.96,17,35.36,17.4z"/>
	<path class="st2" d="M28.38,37.99c0,0.75-0.61,1.36-1.36,1.36s-1.36-0.61-1.36-1.36c0-0.75,0.61-1.36,1.36-1.36
		S28.38,37.24,28.38,37.99z"/>
	<g>
		<path class="st7" d="M22.94,37.86c-3.63,1.06-7.26,0.01-10.71-2.22c-3.84-2.48-5.77-6.43-5.82-10.58
			c-0.1,4.32,1.84,8.47,5.82,11.05c3.45,2.23,7.08,3.28,10.71,2.22c0.74-0.22,1.51,0.24,1.66,0.99c0,0.01,0,0.01,0,0.02
			c0.03-0.15,0.03-0.32,0-0.48C24.45,38.09,23.68,37.64,22.94,37.86z"/>
	</g>
	<path class="st8" d="M31.21,36.3c0,0.55-0.45,1-1,1c-0.55,0-1-0.45-1-1s0.45-1,1-1C30.76,35.3,31.21,35.75,31.21,36.3z"/>
	<circle class="st9" cx="32.45" cy="34.66" r="0.64"/>
	<g>
		<path class="st10" d="M7.55,17.97c2.53-4.13,6.88-6.48,11.37-6.58C14.23,11.31,9.63,13.67,7,17.97
			c-2.95,4.83-3.99,18.9,10.72,22.22c0.55,0.1,1.1,0.18,1.65,0.23C3.51,37.56,4.53,22.92,7.55,17.97z"/>
	</g>
</g>
<g>
	<g>
		<text transform="matrix(0.82 0 0 1 14.7607 28.8184)" class="st5 st11 st12">NOMBRE DEL SISTEMA</text>
	</g>
	<path class="st13" d="M118.73,30.13H14.23c-0.15,0-0.27,0.1-0.27,0.23l0,0c0,0.13,0.12,0.23,0.27,0.23h104.5
		c0.15,0,0.27-0.1,0.27-0.23l0,0C119,30.23,118.88,30.13,118.73,30.13z"/>
</g>
</svg>
