<svg xmlns="http://www.w3.org/2000/svg" viewBox="0 0 213.05 106.79"><defs><style>.cls-1{fill:none;stroke:#fff;stroke-miterlimit:10;stroke-width:0.25px;opacity:0.1;}.cls-2{fill:#9b9b9b;}.cls-3{fill:#6d6c6c;}.cls-4{fill:#fff;}</style></defs><title>Paso3Bloqueado</title><g id="Capa_1" data-name="Capa 1"><rect class="cls-1" x="0.13" y="0.13" width="212.8" height="106.54"/></g><g id="Capa_2" data-name="Capa 2"><circle class="cls-2" cx="93.26" cy="30.25" r="19.52"/><path class="cls-3" d="M56.47,70.69V60.74h3.19a7.36,7.36,0,0,1,1.1.07,3.74,3.74,0,0,1,.93.24,2,2,0,0,1,.74.47,2,2,0,0,1,.47.76,3.07,3.07,0,0,1,.18,1.11A2.5,2.5,0,0,1,62.6,65a2.39,2.39,0,0,1-1.46.84,1.67,1.67,0,0,1,.89.62,6.44,6.44,0,0,1,.66,1.28l1.16,3H62.46l-1.09-2.92a4.78,4.78,0,0,0-.43-.92,1.14,1.14,0,0,0-.51-.44,2.25,2.25,0,0,0-.87-.14H57.78v4.42Zm1.3-5.52h1.85a2.62,2.62,0,0,0,1.54-.39,1.5,1.5,0,0,0,.55-1.32,2.46,2.46,0,0,0-.08-.65,1.17,1.17,0,0,0-.23-.46.93.93,0,0,0-.39-.3,2.13,2.13,0,0,0-.54-.16,4.83,4.83,0,0,0-.71,0h-2Z" transform="translate(0.13 0.13)"/><path class="cls-3" d="M68.74,70.84a3.41,3.41,0,0,1-3.65-3.63,3.8,3.8,0,0,1,1-2.66,3.2,3.2,0,0,1,2.5-1,3.07,3.07,0,0,1,1.69.46,2.77,2.77,0,0,1,1,1.25A4.65,4.65,0,0,1,71.61,67c0,.09,0,.2,0,.34h-5.2a2.46,2.46,0,0,0,.68,1.81,2.34,2.34,0,0,0,1.73.64A3.46,3.46,0,0,0,71,69l.38.93A4.26,4.26,0,0,1,68.74,70.84ZM66.42,66.5h4A2.29,2.29,0,0,0,69.89,65a1.7,1.7,0,0,0-1.31-.52,2,2,0,0,0-1.44.53A2.45,2.45,0,0,0,66.42,66.5Z" transform="translate(0.13 0.13)"/><path class="cls-3" d="M75.39,70.69l-2.94-7h1.37l.7,1.8c.31.77.58,1.47.83,2.11s.48,1.24.69,1.81c.19-.58.41-1.19.65-1.83l.81-2.1.68-1.79h1.35l-2.94,7Z" transform="translate(0.13 0.13)"/><path class="cls-3" d="M80.77,70.69v-7H82v7Zm0-8.78V60.74H82v1.17Z" transform="translate(0.13 0.13)"/><path class="cls-3" d="M86.69,70.84a4.45,4.45,0,0,1-1.61-.27A4.18,4.18,0,0,1,84,70l.35-.94a4.54,4.54,0,0,0,1,.52,3.27,3.27,0,0,0,1.23.23c.93,0,1.4-.34,1.4-1a.75.75,0,0,0-.32-.65,5.62,5.62,0,0,0-1.22-.51l-.6-.21-.59-.23a4.08,4.08,0,0,1-.49-.28,1.57,1.57,0,0,1-.4-.36,1.6,1.6,0,0,1-.24-.47,2.08,2.08,0,0,1-.09-.63,1.79,1.79,0,0,1,.21-.88,1.52,1.52,0,0,1,.57-.61,2.88,2.88,0,0,1,.8-.34,4,4,0,0,1,.94-.11,4.25,4.25,0,0,1,2.34.61l-.35.9a3.88,3.88,0,0,0-1.85-.49,2,2,0,0,0-1,.23.73.73,0,0,0-.37.66.68.68,0,0,0,.22.56,3.36,3.36,0,0,0,.89.42l.7.24.69.26a4.32,4.32,0,0,1,.56.29,1.6,1.6,0,0,1,.45.38,1.58,1.58,0,0,1,.27.5,2,2,0,0,1,.11.67,2.17,2.17,0,0,1-.21,1,1.78,1.78,0,0,1-.58.66,3.05,3.05,0,0,1-.78.35A3.39,3.39,0,0,1,86.69,70.84Z" transform="translate(0.13 0.13)"/><path class="cls-3" d="M91,70.69v-7h1.25v7Zm0-8.78V60.74h1.25v1.17Z" transform="translate(0.13 0.13)"/><path class="cls-3" d="M97.7,70.84a3.46,3.46,0,0,1-2.66-1,3.66,3.66,0,0,1-1-2.64,3.74,3.74,0,0,1,1-2.67,3.52,3.52,0,0,1,2.67-1,3.42,3.42,0,0,1,2.64,1,3.75,3.75,0,0,1,.94,2.67,3.66,3.66,0,0,1-1,2.64A3.44,3.44,0,0,1,97.7,70.84Zm0-1a2,2,0,0,0,1.69-.72,3.4,3.4,0,0,0,0-3.84,2,2,0,0,0-1.69-.73,2.06,2.06,0,0,0-1.7.73,2.93,2.93,0,0,0-.59,1.93A2.87,2.87,0,0,0,96,69.1,2.07,2.07,0,0,0,97.7,69.82Zm-.45-7.14,1.61-2.46h1.62L98.3,62.68Z" transform="translate(0.13 0.13)"/><path class="cls-3" d="M103.2,70.69V65.62c0-.31,0-.62,0-1s0-.57,0-.74l0-.25h1.3v1.1a2.51,2.51,0,0,1,1-.94,3,3,0,0,1,1.38-.34,2.32,2.32,0,0,1,2,.81,3.88,3.88,0,0,1,.63,2.43v4h-1.26V66.75a3.2,3.2,0,0,0-.34-1.68,1.31,1.31,0,0,0-1.2-.54,2.23,2.23,0,0,0-1.45.54,1.75,1.75,0,0,0-.7,1.23v4.39Z" transform="translate(0.13 0.13)"/><path class="cls-3" d="M118.46,70.84a3,3,0,0,1-2.31-1,3.77,3.77,0,0,1-.9-2.64,4.43,4.43,0,0,1,.39-1.91A3,3,0,0,1,116.77,64a3.1,3.1,0,0,1,1.76-.49,2.6,2.6,0,0,1,1.41.37,2,2,0,0,1,.83.86V60.54H122v8.34c0,.41,0,1,0,1.81H120.8l0-1.19a2,2,0,0,1-.82,1A2.7,2.7,0,0,1,118.46,70.84Zm.18-1a1.9,1.9,0,0,0,1.6-.73,3.17,3.17,0,0,0,.56-2,3,3,0,0,0-.57-1.88,1.88,1.88,0,0,0-1.56-.72,1.84,1.84,0,0,0-1.56.73,3.06,3.06,0,0,0-.55,1.92,3.11,3.11,0,0,0,.54,1.91A1.79,1.79,0,0,0,118.64,69.82Z" transform="translate(0.13 0.13)"/><path class="cls-3" d="M127.54,70.84a3.41,3.41,0,0,1-3.65-3.63,3.8,3.8,0,0,1,1-2.66,3.22,3.22,0,0,1,2.51-1A3.06,3.06,0,0,1,129,64a2.77,2.77,0,0,1,1,1.25,4.48,4.48,0,0,1,.34,1.82c0,.09,0,.2,0,.34h-5.2a2.5,2.5,0,0,0,.68,1.81,2.38,2.38,0,0,0,1.74.64,3.44,3.44,0,0,0,2.22-.78l.38.93A4.24,4.24,0,0,1,127.54,70.84Zm-2.31-4.34h4a2.29,2.29,0,0,0-.56-1.48,1.69,1.69,0,0,0-1.31-.52,2.08,2.08,0,0,0-1.44.53A2.44,2.44,0,0,0,125.23,66.5Z" transform="translate(0.13 0.13)"/><path class="cls-3" d="M57.88,82.69V77.62c0-.31,0-.62,0-1s0-.57,0-.74l0-.25h1.3v1.1a2.57,2.57,0,0,1,1-.94,3,3,0,0,1,1.38-.34,2.32,2.32,0,0,1,2,.81,3.88,3.88,0,0,1,.63,2.43v4H62.83V78.75a3.2,3.2,0,0,0-.34-1.68,1.31,1.31,0,0,0-1.2-.54,2.23,2.23,0,0,0-1.45.54,1.75,1.75,0,0,0-.7,1.23v4.39Z" transform="translate(0.13 0.13)"/><path class="cls-3" d="M69.48,82.84a3.47,3.47,0,0,1-2.66-1,3.66,3.66,0,0,1-1-2.64,3.7,3.7,0,0,1,1-2.67,3.49,3.49,0,0,1,2.67-1,3.42,3.42,0,0,1,2.64,1,3.8,3.8,0,0,1,.94,2.67,3.66,3.66,0,0,1-1,2.64A3.44,3.44,0,0,1,69.48,82.84Zm0-1a2.07,2.07,0,0,0,1.7-.72,2.92,2.92,0,0,0,.58-1.91,3,3,0,0,0-.59-1.93,2.05,2.05,0,0,0-1.69-.73,2.08,2.08,0,0,0-1.71.73,3,3,0,0,0-.59,1.93,2.93,2.93,0,0,0,.59,1.91A2.1,2.1,0,0,0,69.48,81.82Z" transform="translate(0.13 0.13)"/><path class="cls-3" d="M76.78,82.69l-2.94-7h1.38c.16.43.4,1,.7,1.8l.83,2.11c.25.63.47,1.24.68,1.81q.3-.87.66-1.83c.24-.63.5-1.33.8-2.1s.53-1.36.69-1.79h1.35l-2.94,7Z" transform="translate(0.13 0.13)"/><path class="cls-3" d="M85.32,82.84a3.39,3.39,0,0,1-3.64-3.63,3.76,3.76,0,0,1,.95-2.66,3.2,3.2,0,0,1,2.5-1,3.07,3.07,0,0,1,1.69.46,2.84,2.84,0,0,1,1,1.25A4.65,4.65,0,0,1,88.19,79a2.25,2.25,0,0,1,0,.34H83a2.49,2.49,0,0,0,.67,1.81,2.38,2.38,0,0,0,1.74.64A3.46,3.46,0,0,0,87.62,81L88,82A4.28,4.28,0,0,1,85.32,82.84ZM83,78.5h4A2.34,2.34,0,0,0,86.48,77a1.72,1.72,0,0,0-1.31-.52,2,2,0,0,0-1.44.53A2.39,2.39,0,0,0,83,78.5Z" transform="translate(0.13 0.13)"/><path class="cls-3" d="M92.86,82.84a3,3,0,0,1-2.31-1,3.77,3.77,0,0,1-.9-2.64A4.58,4.58,0,0,1,90,77.3,3.08,3.08,0,0,1,91.16,76a3.13,3.13,0,0,1,1.76-.49,2.6,2.6,0,0,1,1.41.37,2.09,2.09,0,0,1,.84.86V72.54h1.26v8.34c0,.41,0,1,0,1.81H95.2l0-1.19a2,2,0,0,1-.81,1A2.75,2.75,0,0,1,92.86,82.84Zm.18-1a1.87,1.87,0,0,0,1.59-.73,3.11,3.11,0,0,0,.56-2,3,3,0,0,0-.56-1.88,1.89,1.89,0,0,0-1.57-.72,1.83,1.83,0,0,0-1.55.73A3.06,3.06,0,0,0,91,79.18a3.11,3.11,0,0,0,.54,1.91A1.79,1.79,0,0,0,93,81.82Z" transform="translate(0.13 0.13)"/><path class="cls-3" d="M101.63,82.84a3.32,3.32,0,0,1-1.43-.29,2.83,2.83,0,0,1-1-.8,3.53,3.53,0,0,1-.64-1.16,4.32,4.32,0,0,1-.22-1.4,4.19,4.19,0,0,1,.4-1.86A3.27,3.27,0,0,1,99.86,76a3.19,3.19,0,0,1,1.77-.5,2.51,2.51,0,0,1,1.35.37,2.49,2.49,0,0,1,.93.92V75.68h1.24v7H103.9V81.5a2.27,2.27,0,0,1-.9,1A2.59,2.59,0,0,1,101.63,82.84Zm.17-1a1.88,1.88,0,0,0,1.6-.73,3.15,3.15,0,0,0,.55-2,3,3,0,0,0-.56-1.88,1.91,1.91,0,0,0-1.6-.72,2,2,0,0,0-1.66.72,3,3,0,0,0-.58,1.9,3.1,3.1,0,0,0,.58,1.93A2,2,0,0,0,101.8,81.82Z" transform="translate(0.13 0.13)"/><path class="cls-3" d="M110.2,82.84a3,3,0,0,1-2.31-1,3.77,3.77,0,0,1-.9-2.64,4.43,4.43,0,0,1,.39-1.91A3,3,0,0,1,108.51,76a3.1,3.1,0,0,1,1.76-.49,2.59,2.59,0,0,1,1.4.37,2,2,0,0,1,.84.86V72.54h1.26v8.34c0,.41,0,1,0,1.81h-1.28l0-1.19a2,2,0,0,1-.82,1A2.7,2.7,0,0,1,110.2,82.84Zm.18-1a1.9,1.9,0,0,0,1.6-.73,3.17,3.17,0,0,0,.56-2,3,3,0,0,0-.57-1.88,1.89,1.89,0,0,0-1.57-.72,1.83,1.83,0,0,0-1.55.73,3.06,3.06,0,0,0-.55,1.92,3.11,3.11,0,0,0,.54,1.91A1.79,1.79,0,0,0,110.38,81.82Z" transform="translate(0.13 0.13)"/><path class="cls-3" d="M119.28,82.84a3.41,3.41,0,0,1-3.65-3.63,3.8,3.8,0,0,1,1-2.66,3.21,3.21,0,0,1,2.5-1,3.07,3.07,0,0,1,1.69.46,2.77,2.77,0,0,1,1,1.25,4.48,4.48,0,0,1,.34,1.82c0,.09,0,.2,0,.34h-5.2a2.5,2.5,0,0,0,.68,1.81,2.37,2.37,0,0,0,1.73.64,3.45,3.45,0,0,0,2.23-.78L122,82A4.24,4.24,0,0,1,119.28,82.84ZM117,78.5h4a2.29,2.29,0,0,0-.56-1.48,1.7,1.7,0,0,0-1.31-.52,2.06,2.06,0,0,0-1.44.53A2.38,2.38,0,0,0,117,78.5Z" transform="translate(0.13 0.13)"/><path class="cls-3" d="M126.45,82.84a4.4,4.4,0,0,1-1.6-.27,4.45,4.45,0,0,1-1.08-.57l.35-.94a4.41,4.41,0,0,0,1,.52,3.27,3.27,0,0,0,1.23.23c.93,0,1.4-.34,1.4-1a.75.75,0,0,0-.32-.65,5.86,5.86,0,0,0-1.22-.51l-.6-.21c-.24-.08-.43-.16-.59-.23a3.43,3.43,0,0,1-.49-.28,1.57,1.57,0,0,1-.4-.36,1.6,1.6,0,0,1-.24-.47,2.08,2.08,0,0,1-.1-.63,1.79,1.79,0,0,1,.21-.88,1.6,1.6,0,0,1,.57-.61,3.16,3.16,0,0,1,.8-.34,4.12,4.12,0,0,1,.95-.11,4.25,4.25,0,0,1,2.34.61l-.35.9a3.88,3.88,0,0,0-1.85-.49,2,2,0,0,0-1,.23.73.73,0,0,0-.37.66.68.68,0,0,0,.22.56,3.42,3.42,0,0,0,.88.42l.71.24.69.26a4.32,4.32,0,0,1,.56.29,1.76,1.76,0,0,1,.45.38,1.58,1.58,0,0,1,.27.5,2,2,0,0,1,.11.67,2.05,2.05,0,0,1-.22,1,1.67,1.67,0,0,1-.57.66,3,3,0,0,1-.79.35A3.29,3.29,0,0,1,126.45,82.84Z" transform="translate(0.13 0.13)"/><path class="cls-4" d="M93,36.72a10.7,10.7,0,0,1-1.72-.14,7.8,7.8,0,0,1-1.38-.33,8.48,8.48,0,0,1-1-.39,3.21,3.21,0,0,1-.62-.34l-.2-.13.83-2a5.69,5.69,0,0,0,.57.31,8.78,8.78,0,0,0,1.31.47,6.36,6.36,0,0,0,1.72.26,3.31,3.31,0,0,0,2.22-.66,2.24,2.24,0,0,0,.78-1.81,2,2,0,0,0-1-1.83,5.9,5.9,0,0,0-2.91-.6h-.34l-.69,0,0-2.31h.78a5.79,5.79,0,0,0,2.93-.55,2.16,2.16,0,0,0,.86-2,1.48,1.48,0,0,0-.81-1.33,3.58,3.58,0,0,0-1.86-.48,5,5,0,0,0-1,.09,3.44,3.44,0,0,0-.84.24,4.56,4.56,0,0,0-.61.28c-.16.08-.34.18-.53.3l-.35.23L87.9,22a9.88,9.88,0,0,1,2.23-1.17,8.52,8.52,0,0,1,2.65-.33,6.36,6.36,0,0,1,1.87.26,5.59,5.59,0,0,1,1.6.74,3.55,3.55,0,0,1,1.14,1.29,3.76,3.76,0,0,1,.43,1.79,4.37,4.37,0,0,1-.29,1.57,3.31,3.31,0,0,1-1,1.33,3.23,3.23,0,0,1-1.67.73,4,4,0,0,1,2.42,1.33A3.71,3.71,0,0,1,98.18,32a4.55,4.55,0,0,1-.42,2,4.38,4.38,0,0,1-1.14,1.49,5.21,5.21,0,0,1-1.66.9A5.88,5.88,0,0,1,93,36.72Z" transform="translate(0.13 0.13)"/><path class="cls-3" d="M187.06,37.41l6.78-6.78-6.78-6.78,1.47-1.46,8.26,8.24-8.26,8.24Z" transform="translate(0.13 0.13)"/><path class="cls-3" d="M195.31,37.41l6.77-6.78-6.77-6.78,1.46-1.46L205,30.63l-8.26,8.24Z" transform="translate(0.13 0.13)"/></g></svg>