<svg id="Capa_1" data-name="Capa 1" xmlns="http://www.w3.org/2000/svg" viewBox="0 0 397.74 397.75"><defs><style>.cls-1{fill:#6c6c6c;}</style></defs><title>Crear_Etiqueta</title><path class="cls-1" d="M317.73,194.41l46.81-46.11V352.67a49.77,49.77,0,0,1-49.77,49.77H65.94a49.78,49.78,0,0,1-49.77-49.77V103.84A49.77,49.77,0,0,1,65.94,54.07H270.3l-47.88,46.59H63.05V355.35H317.73Zm.42-144.31,50.37,50.39L385.31,83.7,334.94,33.31ZM363.54,4.69l-16.79,16.8,50.37,50.37,16.79-16.79ZM153.2,215.08,304.33,63.92l50.37,50.39L203.57,265.46,130.21,288.4ZM178.25,217l8.61,8.76L316.41,98.4l-8.61-8.76Zm0,0" transform="translate(-16.17 -4.69)"/></svg>