<svg xmlns="http://www.w3.org/2000/svg" viewBox="0 0 213.05 106.79"><defs><style>.cls-1{fill:#9b9b9b;}.cls-2{fill:#6d6c6c;}.cls-3{fill:#fff;}.cls-4{fill:none;stroke:#fff;stroke-miterlimit:10;stroke-width:0.25px;opacity:0.1;}</style></defs><title>Paso2Bloqueado</title><g id="Capa_1" data-name="Capa 1"><circle class="cls-1" cx="95.06" cy="30.25" r="19.52"/><path class="cls-2" d="M57.17,69.74a3.48,3.48,0,0,0,.75-.07,1.83,1.83,0,0,0,.57-.22,1.43,1.43,0,0,0,.42-.35,1.51,1.51,0,0,0,.25-.47,2.23,2.23,0,0,0,.08-.6,2,2,0,0,0-.08-.6,1.12,1.12,0,0,0-.28-.46,2.19,2.19,0,0,0-.58-.4,8.45,8.45,0,0,0-1-.35l-.3-.09L56.72,66a5.09,5.09,0,0,1-2.08-1A2.41,2.41,0,0,1,54,63.19a2.33,2.33,0,0,1,.44-1.44,2.57,2.57,0,0,1,1.17-.9,4.64,4.64,0,0,1,1.69-.29,4.21,4.21,0,0,1,3.07,1l-.65.88a3,3,0,0,0-.94-.58,3.52,3.52,0,0,0-1.32-.24,2.7,2.7,0,0,0-1.51.38,1.23,1.23,0,0,0-.56,1.11,1.92,1.92,0,0,0,.13.78,1.18,1.18,0,0,0,.48.49,4.8,4.8,0,0,0,1.07.44l.25.08.33.09a8.81,8.81,0,0,1,1.44.54,3,3,0,0,1,.9.64,2.05,2.05,0,0,1,.48.81,3.56,3.56,0,0,1,.14,1,2.77,2.77,0,0,1-.26,1.22,2.41,2.41,0,0,1-.73.88,3.4,3.4,0,0,1-1.07.5,4.56,4.56,0,0,1-1.31.17,5.19,5.19,0,0,1-2-.36A4.32,4.32,0,0,1,54,69.72l.59-.94a5.36,5.36,0,0,0,1.14.66A3.81,3.81,0,0,0,57.17,69.74Z" transform="translate(0.13 0.13)"/><path class="cls-2" d="M65.71,70.84a3.41,3.41,0,0,1-3.65-3.63A3.84,3.84,0,0,1,63,64.54a3.22,3.22,0,0,1,2.5-1A3,3,0,0,1,67.2,64a2.8,2.8,0,0,1,1,1.24A4.74,4.74,0,0,1,68.58,67c0,.09,0,.2,0,.33h-5.2A2.47,2.47,0,0,0,64,69.18a2.34,2.34,0,0,0,1.73.64A3.46,3.46,0,0,0,68,69l.38.93A4.26,4.26,0,0,1,65.71,70.84ZM63.39,66.5h4A2.29,2.29,0,0,0,66.86,65a1.72,1.72,0,0,0-1.31-.52,2,2,0,0,0-1.44.53A2.45,2.45,0,0,0,63.39,66.5Z" transform="translate(0.13 0.13)"/><path class="cls-2" d="M70.55,70.69V60.54h1.26V70.69Z" transform="translate(0.13 0.13)"/><path class="cls-2" d="M77.27,70.84a3.39,3.39,0,0,1-3.64-3.63,3.84,3.84,0,0,1,.94-2.67,3.26,3.26,0,0,1,2.51-1,3,3,0,0,1,1.69.46,2.78,2.78,0,0,1,1,1.24A4.56,4.56,0,0,1,80.14,67a2.06,2.06,0,0,1,0,.33H74.93a2.5,2.5,0,0,0,.67,1.82,2.38,2.38,0,0,0,1.74.64A3.46,3.46,0,0,0,79.57,69l.37.93A4.24,4.24,0,0,1,77.27,70.84ZM75,66.5h4A2.4,2.4,0,0,0,78.43,65a1.73,1.73,0,0,0-1.32-.52,2,2,0,0,0-1.43.53A2.39,2.39,0,0,0,75,66.5Z" transform="translate(0.13 0.13)"/><path class="cls-2" d="M85.17,70.84a3.43,3.43,0,0,1-2.6-1,3.6,3.6,0,0,1-1-2.6,3.74,3.74,0,0,1,1-2.7,3.48,3.48,0,0,1,2.61-1,3.16,3.16,0,0,1,2.32.84l-.45.83a2.63,2.63,0,0,0-1.78-.64,2.28,2.28,0,0,0-1.73.7,2.8,2.8,0,0,0-.66,2,2.69,2.69,0,0,0,.64,1.89,2.21,2.21,0,0,0,1.73.71,3,3,0,0,0,1.91-.66l.4.91A3.8,3.8,0,0,1,85.17,70.84Z" transform="translate(0.13 0.13)"/><path class="cls-2" d="M92.45,70.84a3.41,3.41,0,0,1-2.6-1,3.6,3.6,0,0,1-1-2.6,3.74,3.74,0,0,1,1-2.7,3.48,3.48,0,0,1,2.61-1,3.15,3.15,0,0,1,2.32.84l-.44.83a2.65,2.65,0,0,0-1.79-.64,2.3,2.3,0,0,0-1.73.7,2.8,2.8,0,0,0-.66,2,2.69,2.69,0,0,0,.64,1.89,2.22,2.22,0,0,0,1.73.71,3.06,3.06,0,0,0,1.92-.66l.39.91A3.75,3.75,0,0,1,92.45,70.84Z" transform="translate(0.13 0.13)"/><path class="cls-2" d="M96.63,70.69v-7h1.25v7Zm0-8.78V60.74h1.24v1.17Z" transform="translate(0.13 0.13)"/><path class="cls-2" d="M103.32,70.84a3.47,3.47,0,0,1-2.66-1,3.66,3.66,0,0,1-1-2.64,3.7,3.7,0,0,1,1-2.67,3.49,3.49,0,0,1,2.67-1,3.42,3.42,0,0,1,2.64,1,3.8,3.8,0,0,1,.94,2.67,3.66,3.66,0,0,1-1,2.64A3.44,3.44,0,0,1,103.32,70.84Zm0-1a2.07,2.07,0,0,0,1.7-.72,3.44,3.44,0,0,0,0-3.84,2.05,2.05,0,0,0-1.69-.73,2.08,2.08,0,0,0-1.71.73,3,3,0,0,0-.59,1.93,2.93,2.93,0,0,0,.59,1.91A2.09,2.09,0,0,0,103.32,69.82Zm-.45-7.14,1.62-2.46h1.62l-2.19,2.46Z" transform="translate(0.13 0.13)"/><path class="cls-2" d="M108.82,70.69V65.62c0-.31,0-.63,0-1s0-.57,0-.74l0-.25H110l0,1.1a2.55,2.55,0,0,1,1-.94,3.06,3.06,0,0,1,1.38-.34,2.34,2.34,0,0,1,2,.8,3.93,3.93,0,0,1,.63,2.44v4h-1.25V66.75a3.19,3.19,0,0,0-.35-1.68,1.3,1.3,0,0,0-1.2-.54,2.23,2.23,0,0,0-1.44.53,1.76,1.76,0,0,0-.71,1.24v4.39Z" transform="translate(0.13 0.13)"/><path class="cls-2" d="M124.08,70.84a3,3,0,0,1-2.3-1,3.77,3.77,0,0,1-.9-2.64,4.43,4.43,0,0,1,.38-1.91A3,3,0,0,1,122.39,64a3.2,3.2,0,0,1,1.76-.48,2.69,2.69,0,0,1,1.41.36,2.08,2.08,0,0,1,.83.87V60.54h1.27v8.34c0,.41,0,1,0,1.81h-1.28l0-1.19a2,2,0,0,1-.82,1A2.7,2.7,0,0,1,124.08,70.84Zm.19-1a1.9,1.9,0,0,0,1.59-.73,3.17,3.17,0,0,0,.56-2,2.93,2.93,0,0,0-.57-1.88,1.87,1.87,0,0,0-1.56-.72,1.82,1.82,0,0,0-1.55.73,3.06,3.06,0,0,0-.56,1.92,3.11,3.11,0,0,0,.54,1.91A1.81,1.81,0,0,0,124.27,69.82Z" transform="translate(0.13 0.13)"/><path class="cls-2" d="M133.16,70.84a3.39,3.39,0,0,1-3.64-3.63,3.84,3.84,0,0,1,.94-2.67,3.26,3.26,0,0,1,2.51-1,3,3,0,0,1,1.69.46,2.78,2.78,0,0,1,1,1.24A4.56,4.56,0,0,1,136,67a2.06,2.06,0,0,1,0,.33h-5.19a2.5,2.5,0,0,0,.67,1.82,2.38,2.38,0,0,0,1.74.64,3.46,3.46,0,0,0,2.23-.78l.37.93A4.24,4.24,0,0,1,133.16,70.84Zm-2.31-4.34h4a2.34,2.34,0,0,0-.56-1.48A1.73,1.73,0,0,0,133,64.5a2,2,0,0,0-1.43.53A2.39,2.39,0,0,0,130.85,66.5Z" transform="translate(0.13 0.13)"/><path class="cls-2" d="M55.22,82.69V76.52H54v-.84h1.25v-.57c0-.25,0-.45,0-.63A4.78,4.78,0,0,1,55.3,74a2.07,2.07,0,0,1,.14-.44,1.92,1.92,0,0,1,.23-.35,1,1,0,0,1,.34-.28,3.05,3.05,0,0,1,.47-.19,3.45,3.45,0,0,1,.62-.11,6.65,6.65,0,0,1,.81,0h.32l0,1-.69,0a1.94,1.94,0,0,0-.47.1,1,1,0,0,0-.3.17.58.58,0,0,0-.17.28,1.72,1.72,0,0,0-.08.38c0,.13,0,.31,0,.53v.68h1.67v.84H56.48v6.17Z" transform="translate(0.13 0.13)"/><path class="cls-2" d="M62.26,82.85a2.55,2.55,0,0,1-2-.77A3,3,0,0,1,59.56,80V75.68h1.25V80a1.93,1.93,0,0,0,.43,1.36,1.64,1.64,0,0,0,1.23.46,2,2,0,0,0,1.45-.53,1.89,1.89,0,0,0,.52-1.36V75.68h1.25V81c0,.62,0,1.2.07,1.73H64.48l0-1.12a2.57,2.57,0,0,1-.83.91A2.31,2.31,0,0,1,62.26,82.85Z" transform="translate(0.13 0.13)"/><path class="cls-2" d="M68.11,82.69V77.62c0-.31,0-.63,0-1s0-.57,0-.74l0-.25h1.3v1.1a2.51,2.51,0,0,1,1-.94,3,3,0,0,1,1.37-.34,2.35,2.35,0,0,1,2,.8,3.93,3.93,0,0,1,.63,2.44v4H73.07V78.75a3.2,3.2,0,0,0-.34-1.68,1.31,1.31,0,0,0-1.2-.54,2.28,2.28,0,0,0-1.45.53,1.79,1.79,0,0,0-.7,1.24v4.39Z" transform="translate(0.13 0.13)"/><path class="cls-2" d="M79.67,82.84a3.43,3.43,0,0,1-2.6-1,3.6,3.6,0,0,1-1-2.6,3.74,3.74,0,0,1,1-2.7,3.48,3.48,0,0,1,2.61-1,3.16,3.16,0,0,1,2.32.84l-.45.83a2.63,2.63,0,0,0-1.78-.64,2.28,2.28,0,0,0-1.73.7,2.8,2.8,0,0,0-.66,2A2.69,2.69,0,0,0,78,81.11a2.21,2.21,0,0,0,1.73.71,3,3,0,0,0,1.91-.66l.4.91A3.8,3.8,0,0,1,79.67,82.84Z" transform="translate(0.13 0.13)"/><path class="cls-2" d="M83.86,82.69v-7h1.25v7Zm0-8.78V72.74h1.25v1.17Z" transform="translate(0.13 0.13)"/><path class="cls-2" d="M90.55,82.84a3.47,3.47,0,0,1-2.66-1,3.66,3.66,0,0,1-1-2.64,3.74,3.74,0,0,1,1-2.67,3.52,3.52,0,0,1,2.67-1,3.42,3.42,0,0,1,2.64,1,3.76,3.76,0,0,1,1,2.67,3.66,3.66,0,0,1-1,2.64A3.44,3.44,0,0,1,90.55,82.84Zm0-1a2,2,0,0,0,1.69-.72,3.4,3.4,0,0,0,0-3.84,2,2,0,0,0-1.69-.73,2.06,2.06,0,0,0-1.7.73,2.93,2.93,0,0,0-.59,1.93,2.87,2.87,0,0,0,.59,1.91A2.07,2.07,0,0,0,90.55,81.82Z" transform="translate(0.13 0.13)"/><path class="cls-2" d="M96.05,82.69V77.62c0-.31,0-.63,0-1s0-.57,0-.74l0-.25h1.3v1.1a2.51,2.51,0,0,1,1-.94,3,3,0,0,1,1.38-.34,2.34,2.34,0,0,1,1.95.8,3.93,3.93,0,0,1,.63,2.44v4H101V78.75a3.2,3.2,0,0,0-.34-1.68,1.31,1.31,0,0,0-1.2-.54,2.28,2.28,0,0,0-1.45.53,1.79,1.79,0,0,0-.7,1.24v4.39Z" transform="translate(0.13 0.13)"/><path class="cls-2" d="M107.37,82.84a3.32,3.32,0,0,1-1.43-.29,2.83,2.83,0,0,1-1-.8,3.53,3.53,0,0,1-.64-1.16,4.32,4.32,0,0,1-.22-1.4,4.16,4.16,0,0,1,.4-1.86A3.27,3.27,0,0,1,105.6,76a3.19,3.19,0,0,1,1.77-.5,2.61,2.61,0,0,1,2.28,1.29V75.68h1.24v7h-1.25V81.5a2.25,2.25,0,0,1-.9,1A2.59,2.59,0,0,1,107.37,82.84Zm.17-1a1.88,1.88,0,0,0,1.6-.73,3.15,3.15,0,0,0,.55-2,3,3,0,0,0-.56-1.88,1.91,1.91,0,0,0-1.6-.72,2,2,0,0,0-1.66.72,3,3,0,0,0-.58,1.9,3.1,3.1,0,0,0,.58,1.93A2,2,0,0,0,107.54,81.82Z" transform="translate(0.13 0.13)"/><path class="cls-2" d="M113.27,82.69V77.4q0-.23,0-.66c0-.29,0-.54,0-.75l0-.31h1.33v1.09a2,2,0,0,1,1.88-1.25,2.66,2.66,0,0,1,.71.08v1.11a3.11,3.11,0,0,0-.77-.11,1.63,1.63,0,0,0-1.3.57,2.36,2.36,0,0,0-.49,1.62v3.9Z" transform="translate(0.13 0.13)"/><path class="cls-2" d="M118.71,82.69v-7H120v7Zm0-8.78V72.74H120v1.17Z" transform="translate(0.13 0.13)"/><path class="cls-2" d="M125.4,82.84a3.46,3.46,0,0,1-2.66-1,3.66,3.66,0,0,1-1-2.64,3.74,3.74,0,0,1,1-2.67,3.52,3.52,0,0,1,2.67-1,3.42,3.42,0,0,1,2.64,1,3.76,3.76,0,0,1,.95,2.67,3.66,3.66,0,0,1-1,2.64A3.44,3.44,0,0,1,125.4,82.84Zm0-1a2,2,0,0,0,1.69-.72,3.4,3.4,0,0,0,0-3.84,2,2,0,0,0-1.69-.73,2.06,2.06,0,0,0-1.7.73,2.93,2.93,0,0,0-.59,1.93,2.87,2.87,0,0,0,.59,1.91A2.07,2.07,0,0,0,125.4,81.82Z" transform="translate(0.13 0.13)"/><path class="cls-2" d="M133.23,82.84a4.45,4.45,0,0,1-1.61-.27,4.18,4.18,0,0,1-1.07-.57l.35-.94a4.54,4.54,0,0,0,1,.52,3.48,3.48,0,0,0,1.23.23c.93,0,1.4-.34,1.4-1a.75.75,0,0,0-.32-.65,6,6,0,0,0-1.22-.52l-.6-.2-.59-.23a4.08,4.08,0,0,1-.49-.28,1.57,1.57,0,0,1-.4-.36,1.6,1.6,0,0,1-.24-.47,2.08,2.08,0,0,1-.09-.63,1.86,1.86,0,0,1,.21-.89,1.5,1.5,0,0,1,.57-.6,2.88,2.88,0,0,1,.8-.34,4,4,0,0,1,.94-.11,4.25,4.25,0,0,1,2.34.61l-.35.9a3.88,3.88,0,0,0-1.85-.49,1.89,1.89,0,0,0-1,.23.73.73,0,0,0-.37.66A.68.68,0,0,0,132,78a3.36,3.36,0,0,0,.89.42l.7.24.69.26a4.32,4.32,0,0,1,.56.29,1.6,1.6,0,0,1,.45.38,1.64,1.64,0,0,1,.27.49,2.06,2.06,0,0,1,.11.68,2.17,2.17,0,0,1-.21,1,1.78,1.78,0,0,1-.58.66,3.05,3.05,0,0,1-.78.35A3.84,3.84,0,0,1,133.23,82.84Z" transform="translate(0.13 0.13)"/><path class="cls-3" d="M94.55,20.37A4.67,4.67,0,0,1,98,21.68a5.15,5.15,0,0,1,1.31,3.78,5.47,5.47,0,0,1-.09,1,7,7,0,0,1-.21.87,4.45,4.45,0,0,1-.37.82c-.17.3-.31.53-.42.71a5.88,5.88,0,0,1-.53.69l-.53.6c-.11.13-.31.34-.58.62l-3.12,3.28H99.2v2.23H90.13v-2l4.53-5,.75-.84c.13-.16.32-.38.54-.68a4.21,4.21,0,0,0,.46-.71,4.62,4.62,0,0,0,.22-.66,3.1,3.1,0,0,0,.1-.81,6.85,6.85,0,0,0-.08-.85,3.34,3.34,0,0,0-.31-1,1.78,1.78,0,0,0-.54-.63,2,2,0,0,0-.68-.32,3.32,3.32,0,0,0-.81-.1,4.44,4.44,0,0,0-.62.05,5.65,5.65,0,0,0-.62.13l-.61.18a5.72,5.72,0,0,0-.55.22l-.5.22L91,23.7l-.32.18-.21.14-.08,0-.91-2.14.24-.17c.1-.06.33-.19.68-.37s.71-.33,1.08-.47a10.22,10.22,0,0,1,1.4-.37A8.89,8.89,0,0,1,94.55,20.37Z" transform="translate(0.13 0.13)"/><path class="cls-2" d="M187.83,37.41l6.78-6.78-6.78-6.78,1.46-1.46,8.27,8.24-8.27,8.24Z" transform="translate(0.13 0.13)"/><path class="cls-2" d="M196.08,37.41l6.77-6.78-6.77-6.78,1.46-1.46,8.26,8.24-8.26,8.24Z" transform="translate(0.13 0.13)"/></g><g id="Capa_2" data-name="Capa 2"><rect class="cls-4" x="0.13" y="0.13" width="212.8" height="106.54"/></g></svg>