<svg xmlns="http://www.w3.org/2000/svg" viewBox="0 0 213.05 106.79"><defs><style>.cls-1{fill:none;stroke:#fff;stroke-miterlimit:10;stroke-width:0.25px;opacity:0.1;}.cls-2{fill:#6e992e;}.cls-3{fill:#6d6c6c;}.cls-4{fill:#fff;}</style></defs><title>Paso5Activo</title><g id="Capa_1" data-name="Capa 1"><rect class="cls-1" x="0.13" y="0.13" width="212.8" height="106.54"/></g><g id="Capa_2" data-name="Capa 2"><circle class="cls-2" cx="89.73" cy="30.25" r="19.52"/><path class="cls-3" d="M56.54,70.69l3.87-9.95H61.8l3.88,9.95H64.26l-1-2.66H59l-1,2.66ZM59.33,67h3.51q-.87-2.46-1.75-4.86Q60.21,64.54,59.33,67Z" transform="translate(0.13 0.13)"/><path class="cls-3" d="M67.11,73.62v-7.9c0-.31,0-1-.08-2h1.32v1.26a2,2,0,0,1,.86-1,2.72,2.72,0,0,1,1.49-.42,2.81,2.81,0,0,1,2.27,1,3.91,3.91,0,0,1,.86,2.61A4,4,0,0,1,73,69.8a3,3,0,0,1-3.77.66,1.79,1.79,0,0,1-.84-.9v4.06Zm3.36-3.79A1.79,1.79,0,0,0,72,69.09a3.21,3.21,0,0,0,.53-1.92A3.16,3.16,0,0,0,72,65.26a1.78,1.78,0,0,0-1.52-.73,1.88,1.88,0,0,0-1.59.75,3.18,3.18,0,0,0-.57,2,2.93,2.93,0,0,0,.56,1.87A1.93,1.93,0,0,0,70.47,69.83Z" transform="translate(0.13 0.13)"/><path class="cls-3" d="M75.75,70.69V65.4c0-.15,0-.37,0-.66s0-.54,0-.75l0-.31H77v1.09a2,2,0,0,1,1.87-1.25,2.74,2.74,0,0,1,.72.08v1.11a3.11,3.11,0,0,0-.77-.11,1.63,1.63,0,0,0-1.3.57,2.36,2.36,0,0,0-.5,1.62v3.9Z" transform="translate(0.13 0.13)"/><path class="cls-3" d="M84.33,70.84a3.47,3.47,0,0,1-2.66-1,3.66,3.66,0,0,1-1-2.64,3.7,3.7,0,0,1,1-2.67,3.49,3.49,0,0,1,2.67-1,3.38,3.38,0,0,1,2.63,1,3.76,3.76,0,0,1,1,2.67,3.66,3.66,0,0,1-1,2.64A3.44,3.44,0,0,1,84.33,70.84Zm0-1A2,2,0,0,0,86,69.1a2.93,2.93,0,0,0,.59-1.91A3,3,0,0,0,86,65.26a2.05,2.05,0,0,0-1.69-.73,2.08,2.08,0,0,0-1.71.73A3,3,0,0,0,82,67.19a2.93,2.93,0,0,0,.59,1.91A2.07,2.07,0,0,0,84.33,69.82Z" transform="translate(0.13 0.13)"/><path class="cls-3" d="M93.42,70.84a2.79,2.79,0,0,1-1.48-.38,2.2,2.2,0,0,1-.91-1v1.19H89.74c0-1.06.05-1.67.05-1.84V60.54h1.26v4.33a2.29,2.29,0,0,1,.88-1,2.73,2.73,0,0,1,1.51-.41,3,3,0,0,1,2.33,1,3.86,3.86,0,0,1,.86,2.62,4,4,0,0,1-.9,2.71A2.92,2.92,0,0,1,93.42,70.84Zm-.16-1a1.78,1.78,0,0,0,1.53-.73,3.34,3.34,0,0,0,.53-2,3,3,0,0,0-.55-1.87,1.81,1.81,0,0,0-1.52-.71,2,2,0,0,0-1.64.73,3.31,3.31,0,0,0,0,3.83A2,2,0,0,0,93.26,69.82Z" transform="translate(0.13 0.13)"/><path class="cls-3" d="M101.35,70.84a3.28,3.28,0,0,1-1.42-.29,2.83,2.83,0,0,1-1.05-.8,3.53,3.53,0,0,1-.64-1.16,4.32,4.32,0,0,1-.22-1.4,4.16,4.16,0,0,1,.4-1.86,3.16,3.16,0,0,1,2.93-1.83,2.63,2.63,0,0,1,1.36.36,2.59,2.59,0,0,1,.93.93V63.68h1.24v7h-1.26V69.5a2.23,2.23,0,0,1-.89,1A2.63,2.63,0,0,1,101.35,70.84Zm.18-1a1.88,1.88,0,0,0,1.6-.73,3.21,3.21,0,0,0,.55-2,3,3,0,0,0-.56-1.88,1.92,1.92,0,0,0-1.6-.72,2,2,0,0,0-1.67.72,3,3,0,0,0-.57,1.9,3,3,0,0,0,.58,1.93A2,2,0,0,0,101.53,69.82Z" transform="translate(0.13 0.13)"/><path class="cls-3" d="M107.25,70.69V65.4c0-.15,0-.37,0-.66s0-.54,0-.75l0-.31h1.33v1.09a2,2,0,0,1,1.87-1.25,2.74,2.74,0,0,1,.72.08v1.11a3.11,3.11,0,0,0-.77-.11,1.63,1.63,0,0,0-1.3.57,2.36,2.36,0,0,0-.49,1.62v3.9Z" transform="translate(0.13 0.13)"/><path class="cls-3" d="M117,73.65l-.51-.86a3,3,0,0,0,2.11-1.8l.12-.35-2.87-7h1.32l2.17,5.61,2-5.61h1.27l-2.83,7.38a4.51,4.51,0,0,1-1.1,1.67A3.75,3.75,0,0,1,117,73.65Z" transform="translate(0.13 0.13)"/><path class="cls-3" d="M70.65,82.84a3.28,3.28,0,0,1-1.42-.29,2.83,2.83,0,0,1-1-.8,3.53,3.53,0,0,1-.64-1.16,4.32,4.32,0,0,1-.22-1.4,4.16,4.16,0,0,1,.4-1.86,3.16,3.16,0,0,1,2.93-1.83,2.63,2.63,0,0,1,1.36.36,2.59,2.59,0,0,1,.93.93V75.68h1.24v7H72.92V81.5a2.23,2.23,0,0,1-.89,1A2.63,2.63,0,0,1,70.65,82.84Zm.18-1a1.88,1.88,0,0,0,1.6-.73,3.21,3.21,0,0,0,.55-2,3,3,0,0,0-.56-1.88,1.92,1.92,0,0,0-1.6-.72,2,2,0,0,0-1.67.72,3,3,0,0,0-.57,1.9,3,3,0,0,0,.58,1.93A2,2,0,0,0,70.83,81.82Z" transform="translate(0.13 0.13)"/><path class="cls-3" d="M76.54,85.62v-7.9c0-.31,0-1-.08-2h1.32v1.26a2,2,0,0,1,.86-1,2.72,2.72,0,0,1,1.49-.42,2.85,2.85,0,0,1,2.28,1,3.9,3.9,0,0,1,.85,2.61,4.09,4.09,0,0,1-.86,2.67,3,3,0,0,1-3.78.66,1.88,1.88,0,0,1-.84-.9v4.06Zm3.36-3.79a1.79,1.79,0,0,0,1.53-.74A3.14,3.14,0,0,0,82,79.17a3.09,3.09,0,0,0-.54-1.91,1.76,1.76,0,0,0-1.52-.73,1.88,1.88,0,0,0-1.58.75,3.18,3.18,0,0,0-.57,2,2.88,2.88,0,0,0,.56,1.87A1.9,1.9,0,0,0,79.9,81.83Z" transform="translate(0.13 0.13)"/><path class="cls-3" d="M85.17,82.69V72.54h1.26V82.69Z" transform="translate(0.13 0.13)"/><path class="cls-3" d="M88.73,82.69v-7H90v7Zm0-8.78V72.74H90v1.17Z" transform="translate(0.13 0.13)"/><path class="cls-3" d="M95.38,82.84a3.41,3.41,0,0,1-2.6-1,3.6,3.6,0,0,1-1-2.6,3.71,3.71,0,0,1,1-2.7,3.48,3.48,0,0,1,2.61-1,3.12,3.12,0,0,1,2.31.84l-.44.83a2.64,2.64,0,0,0-1.78-.64,2.3,2.3,0,0,0-1.74.7,2.8,2.8,0,0,0-.66,2,2.74,2.74,0,0,0,.64,1.89,2.25,2.25,0,0,0,1.74.71,3.06,3.06,0,0,0,1.91-.66l.4.91A3.8,3.8,0,0,1,95.38,82.84Z" transform="translate(0.13 0.13)"/><path class="cls-3" d="M102.41,82.84a3.28,3.28,0,0,1-1.42-.29,2.83,2.83,0,0,1-1-.8,3.53,3.53,0,0,1-.64-1.16,4.32,4.32,0,0,1-.22-1.4,4.16,4.16,0,0,1,.4-1.86,3.16,3.16,0,0,1,2.93-1.83,2.63,2.63,0,0,1,1.36.36,2.59,2.59,0,0,1,.93.93V75.68h1.24v7h-1.26V81.5a2.23,2.23,0,0,1-.89,1A2.63,2.63,0,0,1,102.41,82.84Zm.18-1a1.88,1.88,0,0,0,1.6-.73,3.21,3.21,0,0,0,.55-2,3,3,0,0,0-.56-1.88,1.92,1.92,0,0,0-1.6-.72,2,2,0,0,0-1.67.72,3,3,0,0,0-.57,1.9,3,3,0,0,0,.58,1.93A2,2,0,0,0,102.59,81.82Z" transform="translate(0.13 0.13)"/><path class="cls-3" d="M108.31,82.69V77.4c0-.15,0-.37,0-.66s0-.54,0-.75l0-.31h1.34v1.09a2,2,0,0,1,1.87-1.25,2.74,2.74,0,0,1,.72.08v1.11a3.11,3.11,0,0,0-.77-.11,1.63,1.63,0,0,0-1.3.57,2.36,2.36,0,0,0-.5,1.62v3.9Z" transform="translate(0.13 0.13)"/><path class="cls-4" d="M89.45,36.53a6.83,6.83,0,0,1-5-2.15l1.43-2a5.37,5.37,0,0,0,1.66,1.38,3.92,3.92,0,0,0,1.81.48,2.89,2.89,0,0,0,2-.78,2.93,2.93,0,0,0,.84-2.24,3.36,3.36,0,0,0-.57-2,1.73,1.73,0,0,0-1.5-.82,2,2,0,0,0-1.8.7l-2.72-.37V20.64h8.69V23H88.1L88,27a3.31,3.31,0,0,1,2.78-1,3.91,3.91,0,0,1,3.06,1.52,5.59,5.59,0,0,1,1.28,3.73,5.69,5.69,0,0,1-.31,1.92,4.82,4.82,0,0,1-.86,1.49,5.39,5.39,0,0,1-1.27,1.06,5.77,5.77,0,0,1-1.54.64A7,7,0,0,1,89.45,36.53Z" transform="translate(0.13 0.13)"/></g></svg>