<svg xmlns="http://www.w3.org/2000/svg" viewBox="0 0 213.05 106.79"><defs><style>.cls-1{fill:#848484;}.cls-2{fill:#6d6c6c;}.cls-3{fill:#fff;}.cls-4{fill:none;stroke:#fff;stroke-miterlimit:10;stroke-width:0.25px;opacity:0.1;}</style></defs><title>Paso1Inactivo</title><g id="Capa_1" data-name="Capa 1"><circle class="cls-1" cx="82.97" cy="30.36" r="19.52"/><path class="cls-2" d="M187.24,37.41,194,30.63l-6.78-6.78,1.46-1.46L197,30.63l-8.26,8.24Z" transform="translate(0.13 0.13)"/><path class="cls-2" d="M195.48,37.41l6.78-6.78-6.78-6.78L197,22.39l8.26,8.24L197,38.87Z" transform="translate(0.13 0.13)"/><path class="cls-2" d="M43.75,70.44V60.49h1.3v9.95Z" transform="translate(0.13 0.13)"/><path class="cls-2" d="M47.58,70.44V65.37c0-.31,0-.63,0-1s0-.57,0-.74l0-.25h1.3v1.1a2.44,2.44,0,0,1,1-.94,2.87,2.87,0,0,1,1.37-.34,2.35,2.35,0,0,1,2,.8,3.93,3.93,0,0,1,.63,2.44v4H52.54V66.5a3.2,3.2,0,0,0-.34-1.68A1.32,1.32,0,0,0,51,64.28a2.21,2.21,0,0,0-1.44.53,1.75,1.75,0,0,0-.7,1.24v4.39Z" transform="translate(0.13 0.13)"/><path class="cls-2" d="M56.6,70.44V64.27H55.35v-.84H56.6v-.58c0-.24,0-.45,0-.62a4.78,4.78,0,0,1,.06-.53,1.63,1.63,0,0,1,.14-.44,1.51,1.51,0,0,1,.23-.35.93.93,0,0,1,.34-.28,3.05,3.05,0,0,1,.47-.19,4.55,4.55,0,0,1,.62-.12q.36,0,.81,0h.32l0,1-.69,0a1.94,1.94,0,0,0-.47.1,1.1,1.1,0,0,0-.31.17.58.58,0,0,0-.16.28,1.61,1.61,0,0,0-.08.38c0,.13,0,.31,0,.53v.68h1.67v.84H57.86v6.17Z" transform="translate(0.13 0.13)"/><path class="cls-2" d="M64.16,70.59a3.47,3.47,0,0,1-2.66-1,3.66,3.66,0,0,1-1-2.64,3.74,3.74,0,0,1,1-2.67,3.52,3.52,0,0,1,2.67-1,3.42,3.42,0,0,1,2.64,1,3.74,3.74,0,0,1,1,2.67,3.66,3.66,0,0,1-1,2.64A3.44,3.44,0,0,1,64.16,70.59Zm0-1a2,2,0,0,0,1.69-.72,2.94,2.94,0,0,0,.59-1.91A3,3,0,0,0,65.85,65a2.37,2.37,0,0,0-3.4,0,3,3,0,0,0-.59,1.94,2.89,2.89,0,0,0,.59,1.91A2.07,2.07,0,0,0,64.16,69.57Z" transform="translate(0.13 0.13)"/><path class="cls-2" d="M69.67,70.44V65.15c0-.15,0-.38,0-.66s0-.54-.05-.75l0-.31h1.33l0,1.09a2,2,0,0,1,1.87-1.26,2.6,2.6,0,0,1,.71.09v1.11a3,3,0,0,0-.77-.11,1.67,1.67,0,0,0-1.3.56,2.46,2.46,0,0,0-.49,1.63v3.9Z" transform="translate(0.13 0.13)"/><path class="cls-2" d="M75.15,70.44V65.26c0-.24,0-.85-.08-1.83h1.31v1.13a2.09,2.09,0,0,1,.9-1,2.68,2.68,0,0,1,1.34-.35,2.22,2.22,0,0,1,1.32.4,2.14,2.14,0,0,1,.81,1.12,3,3,0,0,1,1-1.12,2.84,2.84,0,0,1,1.47-.4,2.2,2.2,0,0,1,1.82.76,3.33,3.33,0,0,1,.62,2.14v4.29H84.45V66.25a2.81,2.81,0,0,0-.32-1.45,1,1,0,0,0-1-.52,1.94,1.94,0,0,0-1.44.61,2.25,2.25,0,0,0-.65,1.51v4H79.81v-4.3a2.45,2.45,0,0,0-.32-1.35,1.16,1.16,0,0,0-1-.51,1.93,1.93,0,0,0-1.4.55,2,2,0,0,0-.63,1.34v4.27Z" transform="translate(0.13 0.13)"/><path class="cls-2" d="M90.82,70.59a3.43,3.43,0,0,1-1.42-.29,3,3,0,0,1-1.06-.8,3.51,3.51,0,0,1-.63-1.16,4.46,4.46,0,0,1,.17-3.26,3.27,3.27,0,0,1,1.17-1.33,3.19,3.19,0,0,1,1.77-.5,2.63,2.63,0,0,1,1.36.36,2.49,2.49,0,0,1,.92.93V63.43h1.25v7H93.09V69.25a2.3,2.3,0,0,1-.9,1A2.57,2.57,0,0,1,90.82,70.59Zm.18-1a1.87,1.87,0,0,0,1.59-.73,3.17,3.17,0,0,0,.55-2A2.94,2.94,0,0,0,92.58,65a1.89,1.89,0,0,0-1.6-.72,2,2,0,0,0-1.66.72,3,3,0,0,0-.57,1.9,3,3,0,0,0,.57,1.92A2,2,0,0,0,91,69.57Z" transform="translate(0.13 0.13)"/><path class="cls-2" d="M99.76,70.59a3.46,3.46,0,0,1-2.6-1,3.61,3.61,0,0,1-1-2.6,3.74,3.74,0,0,1,1-2.7,3.44,3.44,0,0,1,2.61-1,3.2,3.2,0,0,1,2.32.83l-.45.84a2.6,2.6,0,0,0-1.78-.64,2.27,2.27,0,0,0-1.73.7,2.8,2.8,0,0,0-.66,2,2.69,2.69,0,0,0,.64,1.89,2.21,2.21,0,0,0,1.73.71,3.06,3.06,0,0,0,1.91-.66l.4.91A3.86,3.86,0,0,1,99.76,70.59Z" transform="translate(0.13 0.13)"/><path class="cls-2" d="M104,70.44v-7h1.25v7Zm0-8.78V60.49h1.25v1.17Z" transform="translate(0.13 0.13)"/><path class="cls-2" d="M110.64,70.59a3.46,3.46,0,0,1-2.66-1,3.63,3.63,0,0,1-1-2.64,3.74,3.74,0,0,1,1-2.67,3.52,3.52,0,0,1,2.67-1,3.42,3.42,0,0,1,2.64,1,3.74,3.74,0,0,1,.94,2.67,3.66,3.66,0,0,1-1,2.64A3.44,3.44,0,0,1,110.64,70.59Zm0-1a2,2,0,0,0,1.69-.72,2.94,2.94,0,0,0,.58-1.91,3,3,0,0,0-.59-1.94,2,2,0,0,0-1.69-.72,2.08,2.08,0,0,0-1.7.72,3,3,0,0,0-.6,1.94,2.89,2.89,0,0,0,.6,1.91A2.07,2.07,0,0,0,110.64,69.57Zm-.45-7.14L111.8,60h1.62l-2.18,2.46Z" transform="translate(0.13 0.13)"/><path class="cls-2" d="M116.13,70.44V65.37c0-.31,0-.63,0-1s0-.57,0-.74l0-.25h1.3v1.1a2.44,2.44,0,0,1,1-.94,2.87,2.87,0,0,1,1.37-.34,2.35,2.35,0,0,1,2,.8,3.93,3.93,0,0,1,.63,2.44v4h-1.26V66.5a3.2,3.2,0,0,0-.34-1.68,1.32,1.32,0,0,0-1.21-.54,2.21,2.21,0,0,0-1.44.53,1.79,1.79,0,0,0-.7,1.24v4.39Z" transform="translate(0.13 0.13)"/><path class="cls-2" d="M65.83,82.59a2.82,2.82,0,0,1-1.47-.38,2.28,2.28,0,0,1-.92-1v1.19H62.15c0-1.06.05-1.67.05-1.84V72.28h1.26v4.34a2.29,2.29,0,0,1,.88-1,2.74,2.74,0,0,1,1.52-.41,3,3,0,0,1,2.32,1A3.86,3.86,0,0,1,69,78.85a4,4,0,0,1-.9,2.71A2.92,2.92,0,0,1,65.83,82.59Zm-.16-1a1.78,1.78,0,0,0,1.53-.73,3.34,3.34,0,0,0,.53-2A3,3,0,0,0,67.18,77a1.79,1.79,0,0,0-1.52-.71A2,2,0,0,0,64,77a2.88,2.88,0,0,0-.6,1.9,3,3,0,0,0,.6,1.93A2,2,0,0,0,65.67,81.57Z" transform="translate(0.13 0.13)"/><path class="cls-2" d="M73.76,82.59a3.47,3.47,0,0,1-1.42-.29,2.83,2.83,0,0,1-1-.8,3.53,3.53,0,0,1-.64-1.16,4.32,4.32,0,0,1-.22-1.4,4.16,4.16,0,0,1,.4-1.86A3.25,3.25,0,0,1,72,75.75a3.19,3.19,0,0,1,1.77-.5,2.63,2.63,0,0,1,1.36.36,2.44,2.44,0,0,1,.93.93V75.43h1.24v7H76V81.25a2.28,2.28,0,0,1-.89,1A2.63,2.63,0,0,1,73.76,82.59Zm.18-1a1.9,1.9,0,0,0,1.6-.73,3.17,3.17,0,0,0,.55-2A3,3,0,0,0,75.53,77a1.91,1.91,0,0,0-1.6-.72,2,2,0,0,0-1.67.72,3.46,3.46,0,0,0,0,3.82A2,2,0,0,0,73.94,81.57Zm-.61-7.14L74.94,72h1.62l-2.18,2.46Z" transform="translate(0.13 0.13)"/><path class="cls-2" d="M82,82.59a4.39,4.39,0,0,1-2.68-.85l.35-.93a4.41,4.41,0,0,0,1,.52,3.48,3.48,0,0,0,1.23.23c.93,0,1.39-.34,1.39-1a.72.72,0,0,0-.31-.64,6.33,6.33,0,0,0-1.22-.52l-.61-.2-.59-.23a5,5,0,0,1-.49-.28,1.7,1.7,0,0,1-.39-.36,1.54,1.54,0,0,1-.24-.48,1.72,1.72,0,0,1-.1-.62,1.86,1.86,0,0,1,.21-.89,1.57,1.57,0,0,1,.57-.6,3,3,0,0,1,.8-.34,4,4,0,0,1,.94-.11,4.2,4.2,0,0,1,2.34.61l-.35.9A3.85,3.85,0,0,0,82,76.28a2,2,0,0,0-1,.23.73.73,0,0,0-.37.65.69.69,0,0,0,.23.57,3.26,3.26,0,0,0,.88.42l.7.24c.29.1.52.18.7.26a4.25,4.25,0,0,1,.55.29,1.83,1.83,0,0,1,.46.38,1.64,1.64,0,0,1,.27.49,2.07,2.07,0,0,1,.1.68,2.17,2.17,0,0,1-.21,1,1.58,1.58,0,0,1-.57.65,2.83,2.83,0,0,1-.79.36A3.72,3.72,0,0,1,82,82.59Z" transform="translate(0.13 0.13)"/><path class="cls-2" d="M86.3,82.44v-7h1.25v7Zm0-8.78V72.49h1.24v1.17Z" transform="translate(0.13 0.13)"/><path class="cls-2" d="M93,82.59a3.45,3.45,0,0,1-2.6-1,3.62,3.62,0,0,1-1-2.6,3.74,3.74,0,0,1,1-2.7,3.44,3.44,0,0,1,2.61-1,3.18,3.18,0,0,1,2.32.83l-.44.84a2.62,2.62,0,0,0-1.79-.64,2.3,2.3,0,0,0-1.73.7,2.8,2.8,0,0,0-.66,2,2.69,2.69,0,0,0,.64,1.89,2.22,2.22,0,0,0,1.73.71A3.06,3.06,0,0,0,95,80.91l.39.91A3.81,3.81,0,0,1,93,82.59Z" transform="translate(0.13 0.13)"/><path class="cls-2" d="M100,82.59a3.43,3.43,0,0,1-1.42-.29,3,3,0,0,1-1.06-.8,3.51,3.51,0,0,1-.63-1.16A4.46,4.46,0,0,1,97,77.08a3.27,3.27,0,0,1,1.17-1.33,3.19,3.19,0,0,1,1.77-.5,2.63,2.63,0,0,1,1.36.36,2.41,2.41,0,0,1,.92.93V75.43h1.25v7h-1.26V81.25a2.3,2.3,0,0,1-.9,1A2.57,2.57,0,0,1,100,82.59Zm.18-1a1.87,1.87,0,0,0,1.59-.73,3.17,3.17,0,0,0,.55-2,2.94,2.94,0,0,0-.56-1.88,1.89,1.89,0,0,0-1.6-.72,2,2,0,0,0-1.66.72,3,3,0,0,0-.57,1.9,3,3,0,0,0,.57,1.92A2,2,0,0,0,100.16,81.57Z" transform="translate(0.13 0.13)"/><path class="cls-3" d="M79.16,36.28V34.11h2.76V23.41a26.71,26.71,0,0,1-3.13,1.23V22.17a19.87,19.87,0,0,0,3.44-1.53h2.42V34.16h2.81v2.12Z" transform="translate(0.13 0.13)"/></g><g id="Capa_2" data-name="Capa 2"><rect class="cls-4" x="0.13" y="0.13" width="212.8" height="106.54"/></g></svg>