<svg xmlns="http://www.w3.org/2000/svg" viewBox="0 0 213.05 106.79"><defs><style>.cls-1{fill:none;stroke:#fff;stroke-miterlimit:10;stroke-width:0.25px;opacity:0.1;}.cls-2{fill:#6e992e;}.cls-3{fill:#6d6c6c;}.cls-4{fill:#fff;}</style></defs><title>Paso4Activo</title><g id="Capa_1" data-name="Capa 1"><rect class="cls-1" x="0.13" y="0.13" width="212.8" height="106.54"/></g><g id="Capa_2" data-name="Capa 2"><circle class="cls-2" cx="91.51" cy="30.25" r="19.52"/><path class="cls-3" d="M69.87,70.84a5.64,5.64,0,0,1-2.75-.62,4,4,0,0,1-1.71-1.72,6.2,6.2,0,0,1,.08-5.36,4.67,4.67,0,0,1,1.82-1.89A5.19,5.19,0,0,1,70,60.56a5.34,5.34,0,0,1,3.27,1l-.52.91A4.71,4.71,0,0,0,70,61.66a3.73,3.73,0,0,0-2,.54,3.6,3.6,0,0,0-1.35,1.49,4.78,4.78,0,0,0-.47,2.14,4.1,4.1,0,0,0,1,2.85,3.54,3.54,0,0,0,2.78,1.06,6,6,0,0,0,2.17-.35V66.57H69.59V65.46H73.4v4.66A8.44,8.44,0,0,1,69.87,70.84Z" transform="translate(0.13 0.13)"/><path class="cls-3" d="M78.88,70.84a3.41,3.41,0,0,1-3.65-3.63,3.84,3.84,0,0,1,1-2.67,3.24,3.24,0,0,1,2.5-1,3,3,0,0,1,1.69.46,2.8,2.8,0,0,1,1,1.24A4.74,4.74,0,0,1,81.75,67c0,.09,0,.2,0,.33h-5.2a2.47,2.47,0,0,0,.68,1.82,2.36,2.36,0,0,0,1.73.64A3.45,3.45,0,0,0,81.17,69l.38.93A4.24,4.24,0,0,1,78.88,70.84ZM76.56,66.5h4A2.29,2.29,0,0,0,80,65a1.7,1.7,0,0,0-1.31-.52,2,2,0,0,0-1.44.53A2.45,2.45,0,0,0,76.56,66.5Z" transform="translate(0.13 0.13)"/><path class="cls-3" d="M83.72,70.69V65.62c0-.31,0-.63,0-1s0-.57,0-.74l0-.25H85v1.1a2.55,2.55,0,0,1,1-.94,3.06,3.06,0,0,1,1.38-.34,2.35,2.35,0,0,1,2,.8,3.93,3.93,0,0,1,.63,2.44v4H88.68V66.75a3.3,3.3,0,0,0-.34-1.68,1.32,1.32,0,0,0-1.21-.54,2.23,2.23,0,0,0-1.44.53A1.75,1.75,0,0,0,85,66.3v4.39Z" transform="translate(0.13 0.13)"/><path class="cls-3" d="M95.35,70.84a3.39,3.39,0,0,1-3.64-3.63,3.84,3.84,0,0,1,.94-2.67,3.24,3.24,0,0,1,2.51-1,3,3,0,0,1,1.68.46,2.74,2.74,0,0,1,1,1.24A4.56,4.56,0,0,1,98.22,67c0,.09,0,.2,0,.33H93a2.46,2.46,0,0,0,.67,1.82,2.38,2.38,0,0,0,1.74.64A3.46,3.46,0,0,0,97.65,69L98,70A4.24,4.24,0,0,1,95.35,70.84ZM93,66.5h4A2.4,2.4,0,0,0,96.51,65a1.73,1.73,0,0,0-1.32-.52,2.08,2.08,0,0,0-1.44.53A2.44,2.44,0,0,0,93,66.5Z" transform="translate(0.13 0.13)"/><path class="cls-3" d="M100.21,70.69V65.4c0-.15,0-.37,0-.66s0-.54,0-.75l0-.31h1.33l0,1.09a2,2,0,0,1,1.87-1.25,2.62,2.62,0,0,1,.71.08v1.11a3.12,3.12,0,0,0-.78-.11,1.65,1.65,0,0,0-1.3.57,2.41,2.41,0,0,0-.49,1.62v3.9Z" transform="translate(0.13 0.13)"/><path class="cls-3" d="M108.5,70.84a3.28,3.28,0,0,1-1.42-.29,3,3,0,0,1-1.06-.8,3.71,3.71,0,0,1-.63-1.16,4.32,4.32,0,0,1-.22-1.4,4.16,4.16,0,0,1,.4-1.86,3.16,3.16,0,0,1,2.93-1.83,2.63,2.63,0,0,1,1.36.36,2.59,2.59,0,0,1,.93.93V63.68H112v7h-1.26V69.5a2.23,2.23,0,0,1-.89,1A2.63,2.63,0,0,1,108.5,70.84Zm.18-1a1.88,1.88,0,0,0,1.6-.73,3.21,3.21,0,0,0,.55-2,3,3,0,0,0-.56-1.88,1.92,1.92,0,0,0-1.6-.72,2,2,0,0,0-1.67.72,3,3,0,0,0-.57,1.9,3.1,3.1,0,0,0,.57,1.93A2,2,0,0,0,108.68,69.82Z" transform="translate(0.13 0.13)"/><path class="cls-3" d="M114.4,70.69V65.4c0-.15,0-.37,0-.66s0-.54,0-.75l0-.31h1.34v1.09a2,2,0,0,1,1.87-1.25,2.62,2.62,0,0,1,.71.08v1.11a3.12,3.12,0,0,0-.78-.11,1.61,1.61,0,0,0-1.29.57,2.36,2.36,0,0,0-.5,1.62v3.9Z" transform="translate(0.13 0.13)"/><path class="cls-3" d="M56.19,85.62v-7.9c0-.31,0-1-.08-2h1.32v1.26a2,2,0,0,1,.86-1,2.72,2.72,0,0,1,1.49-.42,2.85,2.85,0,0,1,2.28,1,3.9,3.9,0,0,1,.85,2.61,4.09,4.09,0,0,1-.86,2.67,3,3,0,0,1-3.78.66,1.88,1.88,0,0,1-.84-.9v4.06Zm3.36-3.79a1.79,1.79,0,0,0,1.53-.74,3.14,3.14,0,0,0,.53-1.92,3.09,3.09,0,0,0-.53-1.91,1.78,1.78,0,0,0-1.52-.73,1.88,1.88,0,0,0-1.59.75,3.18,3.18,0,0,0-.57,2A2.93,2.93,0,0,0,58,81.12,1.93,1.93,0,0,0,59.55,81.83Z" transform="translate(0.13 0.13)"/><path class="cls-3" d="M64.83,82.69V77.4c0-.15,0-.37,0-.66s0-.54,0-.75l0-.31h1.33v1.09A2,2,0,0,1,68,75.52a2.66,2.66,0,0,1,.71.08v1.11a3.11,3.11,0,0,0-.77-.11,1.63,1.63,0,0,0-1.3.57,2.36,2.36,0,0,0-.49,1.62v3.9Z" transform="translate(0.13 0.13)"/><path class="cls-3" d="M73.43,82.84a3.39,3.39,0,0,1-3.64-3.63,3.84,3.84,0,0,1,.95-2.67,3.22,3.22,0,0,1,2.5-1,3,3,0,0,1,1.69.46,2.8,2.8,0,0,1,1,1.24A4.74,4.74,0,0,1,76.31,79a2.23,2.23,0,0,1,0,.33H71.09a2.47,2.47,0,0,0,.68,1.82,2.34,2.34,0,0,0,1.73.64A3.46,3.46,0,0,0,75.73,81l.38.93A4.28,4.28,0,0,1,73.43,82.84ZM71.12,78.5h4A2.34,2.34,0,0,0,74.59,77a1.72,1.72,0,0,0-1.31-.52,2,2,0,0,0-1.44.53A2.39,2.39,0,0,0,71.12,78.5Z" transform="translate(0.13 0.13)"/><path class="cls-3" d="M78.28,82.69V77.62c0-.31,0-.63,0-1s0-.57,0-.74l0-.25H79.5l0,1.1a2.55,2.55,0,0,1,1-.94,3.06,3.06,0,0,1,1.38-.34,2.36,2.36,0,0,1,2,.8,3.94,3.94,0,0,1,.62,2.44v4H83.24V78.75a3.3,3.3,0,0,0-.34-1.68,1.32,1.32,0,0,0-1.21-.54,2.23,2.23,0,0,0-1.44.53,1.75,1.75,0,0,0-.7,1.24v4.39Z" transform="translate(0.13 0.13)"/><path class="cls-3" d="M89.89,82.84a3.46,3.46,0,0,1-2.66-1,3.66,3.66,0,0,1-1-2.64,3.74,3.74,0,0,1,1-2.67,3.52,3.52,0,0,1,2.67-1,3.42,3.42,0,0,1,2.64,1,3.75,3.75,0,0,1,.94,2.67,3.66,3.66,0,0,1-1,2.64A3.44,3.44,0,0,1,89.89,82.84Zm0-1a2,2,0,0,0,1.69-.72,3.44,3.44,0,0,0,0-3.84,2,2,0,0,0-1.69-.73,2.06,2.06,0,0,0-1.7.73,2.93,2.93,0,0,0-.6,1.93,2.87,2.87,0,0,0,.6,1.91A2.07,2.07,0,0,0,89.89,81.82Zm-.45-7.14,1.61-2.46h1.62l-2.18,2.46Z" transform="translate(0.13 0.13)"/><path class="cls-3" d="M95.38,82.69V77.51c0-.24,0-.85-.07-1.83h1.3l0,1.13a2.07,2.07,0,0,1,.89-1,2.72,2.72,0,0,1,1.35-.35,2.22,2.22,0,0,1,1.32.4A2.24,2.24,0,0,1,101,77a2.86,2.86,0,0,1,1-1.11,2.73,2.73,0,0,1,1.47-.41,2.24,2.24,0,0,1,1.82.76A3.33,3.33,0,0,1,106,78.4v4.29h-1.26V78.5a2.81,2.81,0,0,0-.32-1.45,1,1,0,0,0-1-.52,1.94,1.94,0,0,0-1.44.61,2.2,2.2,0,0,0-.65,1.51v4h-1.26v-4.3A2.54,2.54,0,0,0,99.73,77a1.16,1.16,0,0,0-1-.51,1.93,1.93,0,0,0-1.4.55,2,2,0,0,0-.63,1.34v4.27Z" transform="translate(0.13 0.13)"/><path class="cls-3" d="M108.21,82.69v-7h1.25v7Zm0-8.78V72.74h1.25v1.17Z" transform="translate(0.13 0.13)"/><path class="cls-3" d="M111.8,82.69V77.62c0-.31,0-.63,0-1s0-.57,0-.74l0-.25H113v1.1a2.57,2.57,0,0,1,1-.94,3,3,0,0,1,1.38-.34,2.34,2.34,0,0,1,1.95.8,3.93,3.93,0,0,1,.63,2.44v4h-1.26V78.75a3.2,3.2,0,0,0-.34-1.68,1.31,1.31,0,0,0-1.2-.54,2.23,2.23,0,0,0-1.44.53,1.76,1.76,0,0,0-.71,1.24v4.39Z" transform="translate(0.13 0.13)"/><path class="cls-3" d="M123.12,82.84a3.32,3.32,0,0,1-1.43-.29,3,3,0,0,1-1-.8,3.53,3.53,0,0,1-.64-1.16,4.61,4.61,0,0,1-.22-1.4,4.3,4.3,0,0,1,.4-1.86A3.27,3.27,0,0,1,121.35,76a3.19,3.19,0,0,1,1.77-.5,2.61,2.61,0,0,1,2.28,1.29V75.68h1.24v7h-1.25V81.5a2.19,2.19,0,0,1-.9,1A2.59,2.59,0,0,1,123.12,82.84Zm.17-1a1.88,1.88,0,0,0,1.6-.73,3.15,3.15,0,0,0,.55-2,3,3,0,0,0-.56-1.88,1.91,1.91,0,0,0-1.6-.72,2,2,0,0,0-1.66.72,3,3,0,0,0-.57,1.9,3.1,3.1,0,0,0,.57,1.93A2,2,0,0,0,123.29,81.82Z" transform="translate(0.13 0.13)"/><path class="cls-4" d="M92.33,36.28V32.19H85.7v-2L92,20.64h3.07v9.41h2.46v2.14H95.1v4.09Zm-3.6-6.23h3.64V24.1C92.21,24.35,91,26.34,88.73,30.05Z" transform="translate(0.13 0.13)"/><path class="cls-3" d="M187.65,37.41l6.78-6.78-6.78-6.78,1.47-1.46,8.26,8.24-8.26,8.24Z" transform="translate(0.13 0.13)"/><path class="cls-3" d="M195.9,37.41l6.78-6.78-6.78-6.78,1.46-1.46,8.27,8.24-8.27,8.24Z" transform="translate(0.13 0.13)"/></g></svg>