<svg id="Layer_1" data-name="Layer 1" xmlns="http://www.w3.org/2000/svg" viewBox="0 0 534.87 603.97"><title>PDF</title><path d="M141.32,309.47c0-16.28-11.31-26-31.22-26-8.13,0-13.65.78-16.54,1.59v52.21c3.41.79,7.63,1,13.38,1,21.25,0,34.38-10.75,34.38-28.85Zm0,0" fill="#fff"/><path d="M264.66,284a83.21,83.21,0,0,0-18.1,1.59V401.3c3.41.8,8.94.8,13.9.8,36.2.23,59.82-19.69,59.82-61.92C320.55,303.43,299,284,264.66,284Zm0,0" fill="#fff"/><path d="M501,216H486.52v-70a10,10,0,0,0-.14-1.33,11.61,11.61,0,0,0-2.8-7.66L367.12,4.05,367,4a11.44,11.44,0,0,0-2.34-2c-.26-.18-.52-.32-.78-.47a11.37,11.37,0,0,0-2.34-1c-.23-.06-.4-.14-.63-.2A12.37,12.37,0,0,0,358.21,0H72a23.73,23.73,0,0,0-23.7,23.68V216H33.85A33.84,33.84,0,0,0,0,249.89v176a33.84,33.84,0,0,0,33.85,33.85H48.34v120.5A23.75,23.75,0,0,0,72,604H462.82a23.74,23.74,0,0,0,23.7-23.72V459.78H501a33.86,33.86,0,0,0,33.86-33.85v-176A33.84,33.84,0,0,0,501,216ZM72,23.68H346.36V144.87a11.85,11.85,0,0,0,11.85,11.83H462.82V216H72ZM362.79,338.84c0,33.86-12.35,57.19-29.41,71.65C314.76,426,286.43,433.3,251.8,433.3a347.57,347.57,0,0,1-45.4-2.61V257c14.69-2.38,33.86-3.67,54.06-3.67,33.57,0,55.34,6,72.4,18.87,18.39,13.65,29.93,35.42,29.93,66.64ZM54,431.48V257c12.31-2.11,29.63-3.67,54-3.67,24.66,0,42.27,4.7,54.06,14.16,11.28,8.91,18.88,23.62,18.88,40.94s-5.75,32-16.28,42C151,363.25,130.83,369,107.2,369a101.38,101.38,0,0,1-13.64-.78v63.23ZM462.82,573.87H72V459.78H462.82Zm34.32-286.46H429.19v40.42h63.49v32.53H429.19v71.12H389.06V254.62H497.14Zm0,0" fill="#fff"/></svg>