<?xml version="1.0" encoding="utf-8"?>
<!-- Generator: Adobe Illustrator 22.0.1, SVG Export Plug-In . SVG Version: 6.00 Build 0)  -->
<svg version="1.1" id="Capa_1" xmlns="http://www.w3.org/2000/svg" xmlns:xlink="http://www.w3.org/1999/xlink" x="0px" y="0px"
	 viewBox="0 0 63.3 72.4" style="enable-background:new 0 0 63.3 72.4;" xml:space="preserve">
<style type="text/css">
	.st0{fill:#FFFFFF;}
</style>
<path class="st0" d="M58.1,26.4h-1.6v-7.6c0,0,0-0.1,0-0.1c0-0.3-0.1-0.6-0.3-0.8L43.5,3.3c0,0,0,0,0,0c-0.1-0.1-0.2-0.2-0.3-0.2
	c0,0-0.1,0-0.1-0.1c-0.1,0-0.2-0.1-0.3-0.1c0,0,0,0-0.1,0c-0.1,0-0.2,0-0.3,0H11.3C9.9,2.8,8.7,4,8.7,5.4v21H7.1
	c-2,0-3.7,1.7-3.7,3.7v19.2c0,2,1.7,3.7,3.7,3.7h1.6v13.1c0,1.4,1.2,2.6,2.6,2.6h42.6c1.4,0,2.6-1.2,2.6-2.6V52.9h1.6
	c2,0,3.7-1.7,3.7-3.7V30.1C61.8,28,60.1,26.4,58.1,26.4z M11.3,5.4h29.9v13.2c0,0.7,0.6,1.3,1.3,1.3h11.4v6.5H11.3V5.4z M24.5,29.5
	h4l3.9,6.5l3.8-6.5h4l-5.8,9.9l6.1,10.3h-4l-4.1-6.9l-4.1,6.9h-4l6.1-10.3L24.5,29.5z M9.2,33.2v-3.7h14.9v3.7h-5.5v16.5h-3.8V33.2
	H9.2z M11.3,65.4V52.9h42.6v12.4H11.3z M56.1,33.2h-5.5v16.5h-3.8V33.2h-5.5v-3.7h14.9V33.2z"/>
</svg>
