<svg id="Layer_1" data-name="Layer 1" xmlns="http://www.w3.org/2000/svg" viewBox="0 0 531.87 600.58"><title>XML</title><path d="M498.19,214.82h-14.4V145.24a9.85,9.85,0,0,0-.14-1.32,11.55,11.55,0,0,0-2.79-7.62L365.06,4,365,3.94A11,11,0,0,0,362.64,2c-.26-.18-.51-.32-.77-.47a12.13,12.13,0,0,0-2.33-1c-.23-.05-.4-.14-.63-.19A12.19,12.19,0,0,0,356.2,0H71.64A23.6,23.6,0,0,0,48.07,23.54V214.82H33.66A33.65,33.65,0,0,0,0,248.48v175a33.66,33.66,0,0,0,33.66,33.66H48.07V577a23.61,23.61,0,0,0,23.57,23.58H460.22A23.61,23.61,0,0,0,483.79,577V457.2h14.4a33.68,33.68,0,0,0,33.68-33.66V248.48a33.66,33.66,0,0,0-33.68-33.66ZM71.64,23.54H344.42V144.06a11.78,11.78,0,0,0,11.78,11.76h104v59H71.64ZM368.57,408.38h-35l-2.36-60.54c-.69-19-1.41-42-1.41-65h-.69c-4.91,20.18-11.5,42.69-17.59,61.23L292.33,405.8H264.38L247.5,344.56C242.36,326,237,303.5,233.19,282.84h-.47c-.94,21.36-1.64,45.76-2.81,65.46l-2.82,60.08H194l10.09-158.15h47.64L267.23,303c4.91,18.28,9.83,38,13.36,56.54h.7c4.45-18.31,9.86-39.18,15-56.77l16.88-52.56h46.68Zm-326.6,0,45.74-80-44.1-78.11H84.67L98.5,279.1c4.71,9.6,8.22,17.36,12,26.24h.45c3.77-10.06,6.79-17.1,10.78-26.24l13.4-28.87h40.79l-44.55,77.19,46.92,81H137l-14.32-28.63c-5.86-11-9.6-19.27-14.08-28.41h-.47c-3.27,9.17-7.27,17.37-12.18,28.41L82.8,408.38ZM460.22,570.64H71.64V457.2H460.22Zm34.61-162.26H396V250.23h35.91V378.34h62.9Zm0,0" fill="#fff"/></svg>