<svg id="Layer_1" data-name="Layer 1" xmlns="http://www.w3.org/2000/svg" viewBox="0 0 541.34 611.28"><title>CSV</title><path d="M507.07,218.65H492.41V147.83a9.49,9.49,0,0,0-.14-1.34,11.73,11.73,0,0,0-2.84-7.76L371.57,4.1,371.48,4a12.1,12.1,0,0,0-2.38-2,9.12,9.12,0,0,0-.79-.47,12.47,12.47,0,0,0-2.36-1c-.24-.06-.41-.14-.65-.2A12.55,12.55,0,0,0,362.55,0H72.92a24,24,0,0,0-24,24V218.65H34.26A34.24,34.24,0,0,0,0,252.91V431.05a34.25,34.25,0,0,0,34.26,34.26H48.92v122a24,24,0,0,0,24,24h395.5a24,24,0,0,0,24-24V465.34h14.66a34.27,34.27,0,0,0,34.27-34.26V252.91a34.24,34.24,0,0,0-34.27-34.26ZM72.92,24H350.55V146.6a12,12,0,0,0,12,12H468.42v60.05H72.92ZM253.34,349.14c-29.72-10.35-49.09-26.8-49.09-52.81,0-30.57,25.48-53.93,67.68-53.93,20.19,0,35.05,4.25,45.67,9l-9,32.66a85,85,0,0,0-37.46-8.52c-17.49,0-26,8-26,17.27,0,11.44,10.09,16.47,33.2,25.25,31.61,11.67,46.47,28.12,46.47,53.38,0,30-23.12,55.47-72.24,55.47-20.43,0-40.62-5.32-50.72-10.88l8.23-33.48c10.88,5.59,27.62,11.18,44.88,11.18,18.59,0,28.42-7.72,28.42-19.4,0-11.15-8.52-17.52-30-25.23ZM42.49,337.44c0-61.06,43.57-95,97.73-95,21,0,36.9,4.25,44.07,8l-8.22,32.13a88.14,88.14,0,0,0-34-6.61c-32.13,0-57.09,19.37-57.09,59.19,0,35.85,21.24,58.41,57.38,58.41,12.2,0,25.74-2.63,33.71-5.82l6.11,31.6C174.75,423,158,427,136.25,427c-61.9,0-93.76-38.51-93.76-89.51ZM468.42,580.78H72.92V465.34h395.5ZM441.64,424.29H394.38L337,245.33h44.33L403.16,321c6.09,21.23,11.68,41.68,15.92,64h.79c4.54-21.52,10.09-42.75,16.21-63.21l22.83-76.46h43Zm0,0" fill="#fff"/></svg>