<svg id="Layer_1" data-name="Layer 1" xmlns="http://www.w3.org/2000/svg" viewBox="0 0 533.36 602.27"><title>HTML</title><path d="M499.6,215.42H485.15V145.65a9.85,9.85,0,0,0-.14-1.32,11.59,11.59,0,0,0-2.79-7.64L366.09,4,366,4a11.44,11.44,0,0,0-2.34-2c-.26-.17-.51-.31-.77-.46a11,11,0,0,0-2.33-1c-.24-.06-.41-.14-.64-.2A12.21,12.21,0,0,0,357.2,0H71.84A23.67,23.67,0,0,0,48.2,23.61V215.42H33.76A33.75,33.75,0,0,0,0,249.18V424.7a33.75,33.75,0,0,0,33.76,33.76H48.2V578.62a23.68,23.68,0,0,0,23.64,23.65H461.51a23.67,23.67,0,0,0,23.64-23.65V458.49H499.6a33.77,33.77,0,0,0,33.76-33.76V249.18a33.74,33.74,0,0,0-33.76-33.76ZM71.84,23.61H345.39V144.47a11.82,11.82,0,0,0,11.81,11.79H461.51v59.16H71.84ZM410,398H381.46l-1.94-50.83c-.57-15.94-1.15-35.22-1.15-54.55h-.55c-4,16.93-9.4,35.85-14.42,51.41l-15.68,51.78h-22.8l-13.78-51.37c-4.21-15.57-8.65-34.49-11.71-51.82h-.37c-.78,17.94-1.36,38.41-2.31,55L294.45,398h-27l8.22-132.73h38.92l12.65,44.31c4,15.36,8,31.89,10.93,47.46h.58c3.63-15.37,8-32.87,12.25-47.66l13.81-44.11h38.12ZM156.29,290.46V265.24h99.23v25.22H220.3V398H190.94V290.46Zm-93,52V398H34V265.24H63.31v51h48.12v-51h29.12V398H111.43V342.44Zm398.2,229.81H71.84V458.49H461.51ZM513.12,398H432.46V265.24h29.28V372.78h51.38Zm0,0" fill="#fff"/></svg>