<svg id="Layer_1" data-name="Layer 1" xmlns="http://www.w3.org/2000/svg" viewBox="0 0 531.72 600.42"><title>WORD</title><path d="M499.26,214.76h-14.4V145.2a9.36,9.36,0,0,0-.14-1.32,11.45,11.45,0,0,0-2.79-7.61L366.16,4a.3.3,0,0,1-.08-.08A11.34,11.34,0,0,0,363.74,2a8.81,8.81,0,0,0-.77-.47,12,12,0,0,0-2.32-1c-.24-.05-.41-.14-.64-.19A12.19,12.19,0,0,0,357.3,0H72.82A23.6,23.6,0,0,0,49.25,23.54V214.76H34.85A33.64,33.64,0,0,0,1.2,248.42v175a33.64,33.64,0,0,0,33.65,33.66h14.4V576.84a23.61,23.61,0,0,0,23.57,23.58H461.29a23.6,23.6,0,0,0,23.57-23.58V457.08h14.4a33.67,33.67,0,0,0,33.66-33.66v-175a33.65,33.65,0,0,0-33.66-33.66ZM72.82,23.54h272.7V144a11.79,11.79,0,0,0,11.78,11.79h104v59H72.82Zm282.51,302.8c0,53.54-32.45,86-80.2,86-48.43,0-76.76-36.56-76.76-83.07,0-48.91,31.24-85.47,79.44-85.47,50.12,0,77.52,37.53,77.52,82.58Zm-318,82.59V248.61c13.56-2.18,31.24-3.39,49.89-3.39,31,0,51.08,5.58,66.82,17.42,17,12.62,27.63,32.71,27.63,61.54,0,31.24-11.39,52.76-27.13,66.1-17.19,14.28-43.35,21.07-75.33,21.07a324.62,324.62,0,0,1-41.88-2.42Zm424,161.53H72.82V457.08H461.29Zm1.78-188.89c11.16,0,23.52-2.44,30.76-5.34l5.58,28.83c-6.79,3.39-22,7-41.88,7-56.45,0-85.51-35.13-85.51-81.6,0-55.7,39.73-86.71,89.13-86.71,19.11,0,33.66,3.88,40.21,7.27l-7.5,29.29a80.1,80.1,0,0,0-31-6c-29.29,0-52.08,17.68-52.08,54,0,32.68,19.37,53.28,52.3,53.28Zm0,0" transform="translate(-1.2)" fill="#fff"/><path d="M142.4,325.39c.27-33.92-19.6-51.85-51.32-51.85A77.09,77.09,0,0,0,74.37,275V381.81c3.14.71,8.22.71,12.83.71,33.42.26,55.2-18.16,55.2-57.13Zm0,0" transform="translate(-1.2)" fill="#fff"/><path d="M237.37,328.51c0,32,15,54.5,39.72,54.5,25,0,39.23-23.74,39.23-55.47,0-29.29-14.05-54.47-39.49-54.47-24.92,0-39.46,23.75-39.46,55.44Zm0,0" transform="translate(-1.2)" fill="#fff"/></svg>