<svg id="Layer_1" data-name="Layer 1" xmlns="http://www.w3.org/2000/svg" viewBox="0 0 541.27 611.19"><title>XLS</title><path d="M507,218.62H492.34V147.81c0-.44-.08-.91-.11-1.34a11.82,11.82,0,0,0-2.87-7.76L371.51,4.1,371.42,4a11.76,11.76,0,0,0-2.37-2,9.12,9.12,0,0,0-.79-.47,12.47,12.47,0,0,0-2.36-1c-.24-.06-.42-.14-.65-.2A12.55,12.55,0,0,0,362.5,0H72.91a24,24,0,0,0-24,24V218.62H34.26A34.24,34.24,0,0,0,0,252.87V431a34.25,34.25,0,0,0,34.26,34.26H48.92V587.19a24,24,0,0,0,24,24H468.35a24,24,0,0,0,24-24V465.28H507A34.28,34.28,0,0,0,541.27,431V252.87A34.25,34.25,0,0,0,507,218.62ZM72.91,24H350.5V146.58a12,12,0,0,0,12,12H468.35v60H72.91Zm242.8,326.78c-23.57-8.2-38.94-21.21-38.94-41.84,0-24.19,20.22-42.69,53.66-42.69,16,0,27.74,3.37,36.16,7.14l-7.16,25.86a67.72,67.72,0,0,0-29.64-6.72c-13.87,0-20.6,6.32-20.6,13.66,0,9.07,8,13.05,26.28,20,25,9.25,36.8,22.3,36.8,42.28,0,23.75-18.31,43.95-57.2,43.95-16.21,0-32.18-4.19-40.17-8.61l6.5-26.51c8.63,4.42,21.88,8.84,35.54,8.84,14.75,0,22.5-6.09,22.5-15.36,0-8.81-6.69-13.86-23.73-20Zm-54.27,32.59v26.94H172.91V268.5H205.1V383.33ZM70.1,410.27H33.5l41-71.73L35,268.5H71.77l12.4,25.89c4.22,8.6,7.38,15.53,10.74,23.55h.41c3.37-9,6.09-15.36,9.66-23.55l12-25.89h36.6l-40,69.19,42.07,72.55h-37l-12.85-25.65c-5.23-9.86-8.6-17.23-12.61-25.43h-.4c-3,8.2-6.53,15.57-11,25.43ZM468.35,580.73H72.91V465.28H468.35Zm.23-170.46-12.83-25.68c-5.25-9.86-8.61-17.23-12.62-25.43h-.41c-3,8.2-6.52,15.57-10.94,25.43L420,410.27H383.42l41-71.73-39.53-70h36.81l12.4,25.89c4.22,8.6,7.35,15.53,10.74,23.55h.41c3.37-9,6.09-15.36,9.65-23.55l12-25.89h36.6l-40,69.19,42.07,72.55h-37Zm0,0" fill="#fff"/></svg>