<?xml version="1.0" encoding="utf-8"?>
<!-- Generator: Adobe Illustrator 23.0.3, SVG Export Plug-In . SVG Version: 6.00 Build 0)  -->
<svg version="1.1" id="Layer_1" xmlns="http://www.w3.org/2000/svg" xmlns:xlink="http://www.w3.org/1999/xlink" x="0px" y="0px"
	 viewBox="0 0 247.42 222.35" style="enable-background:new 0 0 247.42 222.35;" xml:space="preserve">
<style type="text/css">
	.st0{fill:#FF8800;}
	.st1{fill:#007CC0;}
	.st2{fill:#FFFFFF;}
</style>
<circle class="st0" cx="39.11" cy="18.85" r="18.85"/>
<circle class="st0" cx="228.57" cy="155.87" r="18.85"/>
<path class="st1" d="M19.08,36.45c0,0,1.21,1.58,8.9,6.66c0,0-30.99,48.25-7.97,99.21c0,0,22.14,58.53,84.89,67.57
	c0,0,52.58,12.11,103.64-36.42l7.87,5.51c0,0-42.08,54.5-115.62,41.32c0,0-65.68-6.94-92.29-75.06
	C8.49,145.24-16.41,92.54,19.08,36.45z"/>
<g>
	<path class="st2" d="M29.37,98.66c0.32-8.18,0.91-14.88,1.77-20.1c0.86-5.22,2.55-9.87,5.07-13.96c2.52-4.09,6.41-7.26,11.68-9.52
		c5.26-2.26,12.24-3.38,20.94-3.38c10.52,0.09,18.84,1.76,24.96,5.01c6.12,3.24,10.41,9.19,12.88,17.84
		c0.64,2.26,1.02,5.69,1.13,10.3c0,1.13,0,1.97,0,2.54H85.26c-0.11-3.29-0.32-5.99-0.64-8.11c-0.32-2.12-1.02-4.04-2.09-5.78
		c-1.07-1.74-2.71-3.12-4.91-4.16c-2.2-1.03-5.13-1.6-8.78-1.69c-3.65,0-6.58,0.73-8.78,2.19c-2.2,1.46-3.84,3.43-4.91,5.92
		c-1.07,2.49-1.77,5.22-2.09,8.18c-0.32,2.96-0.48,6.42-0.48,10.37v29.33c0,2.92,0.16,5.59,0.48,8.04c0.32,2.45,1.02,4.82,2.09,7.12
		c1.07,2.31,2.71,4.18,4.91,5.64c2.2,1.46,5.13,2.19,8.78,2.19c5.9,0,10.15-2.4,12.72-7.19c2.58-4.79,3.87-11.7,3.87-20.73H69.8
		v-15.51h37.53V160H90.41v-12.13h-0.32c-2.04,5.08-4.91,8.72-8.62,10.93c-3.7,2.21-7.92,3.46-12.64,3.74
		c-8.91,0-16.05-1.18-21.42-3.53c-5.37-2.35-9.34-5.64-11.92-9.87s-4.24-9.1-4.99-14.6c-0.75-5.5-1.13-12.43-1.13-20.8V98.66z"/>
	<path class="st2" d="M122.93,160V54.23h22.55v41.89h31.57V54.23h22.55V160h-22.55v-48.37h-31.57V160H122.93z"/>
</g>
</svg>
