<?xml version="1.0" encoding="utf-8"?>
<!-- Generator: Adobe Illustrator 23.0.3, SVG Export Plug-In . SVG Version: 6.00 Build 0)  -->
<svg version="1.1" id="Layer_1" xmlns="http://www.w3.org/2000/svg" xmlns:xlink="http://www.w3.org/1999/xlink" x="0px" y="0px"
	 viewBox="0 0 441.12 304.93" style="enable-background:new 0 0 441.12 304.93;" xml:space="preserve">
<style type="text/css">
	.st0{fill:#FF8800;}
	.st1{fill:#007CC0;}
	.st2{fill:#FFFFFF;}
	.st3{fill:#6E992E;}
</style>
<circle class="st0" cx="53.38" cy="27.23" r="25.73"/>
<circle class="st0" cx="311.92" cy="214.21" r="25.73"/>
<path class="st1" d="M26.03,51.23c0,0,1.66,2.16,12.14,9.09c0,0-42.29,65.85-10.88,135.39c0,0,30.22,79.87,115.85,92.21
	c0,0,71.75,16.52,141.44-49.7l10.74,7.52c0,0-57.42,74.37-157.79,56.39c0,0-89.63-9.47-125.94-102.43
	C11.59,199.71-22.39,127.78,26.03,51.23z"/>
<g>
	<path class="st2" d="M38.8,123.25c0.28-6.98,0.78-12.7,1.51-17.16c0.73-4.45,2.18-8.43,4.33-11.92c2.15-3.49,5.48-6.2,9.97-8.13
		s10.45-2.89,17.87-2.89c8.98,0.08,16.09,1.5,21.31,4.27c5.22,2.77,8.89,7.85,11,15.23c0.55,1.93,0.87,4.86,0.96,8.79
		c0,0.96,0,1.69,0,2.17H86.51c-0.09-2.81-0.27-5.12-0.55-6.92c-0.27-1.81-0.87-3.45-1.79-4.94c-0.92-1.48-2.32-2.67-4.19-3.55
		c-1.88-0.88-4.38-1.36-7.49-1.44c-3.12,0-5.62,0.62-7.49,1.87c-1.88,1.25-3.28,2.93-4.19,5.06c-0.92,2.13-1.51,4.45-1.79,6.98
		c-0.28,2.53-0.41,5.48-0.41,8.85v25.04c0,2.49,0.14,4.78,0.41,6.86c0.27,2.09,0.87,4.11,1.79,6.08s2.31,3.57,4.19,4.82
		c1.88,1.24,4.38,1.87,7.49,1.87c5.04,0,8.66-2.05,10.86-6.14c2.2-4.09,3.3-9.99,3.3-17.7H73.31v-13.24h32.04v48.52H90.91v-10.35
		h-0.27c-1.74,4.33-4.19,7.45-7.36,9.33c-3.16,1.88-6.76,2.95-10.79,3.19c-7.61,0-13.7-1-18.29-3.01
		c-4.58-2.01-7.97-4.82-10.17-8.43c-2.2-3.61-3.62-7.76-4.26-12.46c-0.64-4.7-0.96-10.61-0.96-17.76v-12.89H38.8z"/>
	<path class="st2" d="M118.67,175.62V85.33h19.25v35.76h26.95V85.33h19.25v90.29h-19.25v-41.29h-26.95v41.29H118.67z"/>
	<path class="st3" d="M194.68,130.72c0-16.77,8.71-25.16,26.12-25.16c6.05,0,10.93,0.66,14.64,1.99c3.71,1.32,6.48,3.25,8.32,5.78
		c1.83,2.53,3.05,5.54,3.64,9.03c0.6,3.49,0.89,7.85,0.89,13.06v9.15h-35.75v9.87c0.09,4.09,0.92,6.88,2.47,8.37
		c1.56,1.49,3.85,2.23,6.87,2.23s5.16-0.98,6.39-2.95c1.24-1.97,1.86-5.24,1.86-9.81H248c0,8.19-1.99,14.37-5.98,18.54
		c-3.99,4.17-10.24,6.26-18.77,6.26c-10.08,0-17.37-2.23-21.86-6.68s-6.74-11.74-6.74-21.85v-17.83H194.68z M230.43,132.52v-5.9
		c-0.09-3.45-0.78-5.82-2.06-7.1s-3.71-1.93-7.29-1.93c-3.67,0-6,0.94-7.01,2.83s-1.51,5-1.51,9.33v2.77L230.43,132.52
		L230.43,132.52z"/>
	<path class="st3" d="M275.04,152.87c-0.18,1.28-0.28,2.49-0.28,3.61c0,3.69,0.73,6.04,2.2,7.04s3.57,1.5,6.32,1.5
		c2.2,0,4.03-0.56,5.5-1.69c1.47-1.12,2.2-2.53,2.2-4.21c0-0.56-0.09-1.12-0.27-1.69c-0.09-1.44-0.76-2.69-1.99-3.73
		c-1.24-1.04-2.96-2.17-5.16-3.37c-0.46-0.24-1.01-0.56-1.65-0.96l-9.76-5.9c-4.77-2.89-8.41-6.02-10.93-9.39s-3.78-7.38-3.78-12.04
		c0-5.3,2.31-9.37,6.94-12.22s11.21-4.27,19.73-4.27c16.59,0,24.89,7.51,24.89,22.51h-17.87c0-3.93-0.64-6.66-1.92-8.19
		c-1.28-1.52-3.39-2.29-6.32-2.29c-2.29,0-4.12,0.46-5.5,1.38c-1.37,0.92-2.06,2.31-2.06,4.15c0,1.69,0.53,3.05,1.58,4.09
		c1.05,1.04,2.63,2.21,4.74,3.49l0.41,0.24l14.57,8.67c1.19,0.56,2.45,1.37,3.78,2.41c1.33,1.04,2.61,2.19,3.85,3.43
		c1.24,1.24,2.29,2.53,3.16,3.85s1.35,2.55,1.44,3.67c0.18,1.61,0.27,3.13,0.27,4.57c0,2.73-0.41,5.24-1.24,7.52
		c-0.82,2.29-2.22,4.33-4.19,6.14s-4.72,3.23-8.25,4.27c-3.53,1.04-7.91,1.56-13.13,1.56c-2.66,0-5.41-0.3-8.25-0.9
		c-2.84-0.6-5.55-1.64-8.11-3.13c-2.57-1.48-4.7-3.63-6.39-6.44c-1.7-2.81-2.54-6.3-2.54-10.47c0-0.32,0-0.84,0-1.56
		c0.09-0.72,0.14-1.28,0.14-1.69h17.87V152.87z"/>
	<path class="st3" d="M350.84,175.5c-3.67,0.4-6.69,0.6-9.07,0.6c-4.86,0-8.8-0.82-11.82-2.47c-3.02-1.64-4.54-4.59-4.54-8.85
		v-45.99h-7.29v-11.44h7.15V88.7h18.01v18.66h7.56v11.44h-7.56v42.14c0.18,0.88,0.73,1.5,1.65,1.87c0.92,0.36,2.02,0.54,3.3,0.54
		c0.46,0,0.96,0,1.51,0c0.55-0.08,0.92-0.12,1.1-0.12L350.84,175.5L350.84,175.5z"/>
	<path class="st3" d="M363.11,175.62v-67.9h17.87v67.9H363.11z"/>
	<path class="st3" d="M423.26,131.32v-7.58c-0.27-3.85-2.34-5.78-6.19-5.78c-2.84,0-4.67,1.14-5.5,3.43s-1.24,6.2-1.24,11.74v16.01
		c0,6.5,0.48,10.76,1.44,12.76c0.96,2.01,2.73,3.17,5.29,3.49c2.38-0.08,3.92-0.82,4.61-2.23c0.69-1.4,1.17-3.71,1.44-6.92
		l0.14-0.84v-6.26h17.87v6.26c0,7.3-1.92,12.8-5.77,16.49c-3.85,3.69-10.08,5.54-18.7,5.54c-7.97,0-14-1.99-18.08-5.96
		s-6.12-10.45-6.12-19.44v-22.04c0-4.57,0.6-8.45,1.79-11.62c1.19-3.17,2.89-5.66,5.09-7.46c2.2-1.81,4.74-3.09,7.63-3.85
		s6.12-1.14,9.69-1.14c4.31,0,8.04,0.54,11.21,1.63c3.16,1.08,5.71,2.55,7.63,4.39c1.92,1.85,3.34,3.95,4.26,6.32
		s1.37,4.92,1.37,7.64v5.42H423.26z"/>
</g>
</svg>
